<svg xmlns="http://www.w3.org/2000/svg" viewBox="0 0 570.09 724.84"><defs><style>.cls-1{fill:#ed1c24;}.cls-2{fill:#f7ec13;}.cls-3{fill:#171144;}</style></defs><g id="Layer_2" data-name="Layer 2"><g id="Layer_1-2" data-name="Layer 1"><path class="cls-1" d="M355.36,72.67v.1a3,3,0,0,1-.57,1.74c-2.27,3.12-4.45,6.28-6.76,9.61l-1.2,1.75C288.24,171,223.4,282.64,242.24,391.86c7.78,45.09,23.2,88.61,38.12,130.68,4.77,13.47,9.71,27.39,14.34,41.2l59.77,157.09a3,3,0,0,1-1.55,3.75,2.87,2.87,0,0,1-1.21.26,3,3,0,0,1-2.62-1.57c-20-37.81-39.29-76.06-57.25-113.69-21.63-45.44-43.71-82.65-67.48-113.76-1.24-1.6-2.57-3.38-4-5.25-11.11-14.8-27.9-37.16-46.13-37.65-31.6-.89-55.47,38.17-71.23,64-1,1.58-1.89,3.1-2.8,4.56-6.67,10.8-13.7,21.6-20.5,32-17.59,27-35.77,54.9-49.13,84.87l-.19.43a3,3,0,1,1-5.41-2.4l.21-.45c7.47-16.81,15-34,22.23-50.54C62.07,552,77.22,517.38,92.92,483.76c13.35-28.51,22.17-52.25,27.76-74.68C148.19,297.83,63,206.48.79,139.79a3,3,0,0,1-.3-3.66,10,10,0,0,1,1.18-1.45,3,3,0,0,1,4-.19c12.07,10,43.08,37.8,82.78,78.94,11,11.45,20.46,21.62,28.81,30.59,32.46,34.89,47.29,50.81,66.32,49,30.45-3,49.29-37.69,64.42-65.59,3.37-6.21,6.55-12.07,9.66-17.22,23-38.13,49.77-78.7,84.34-127.67l1.19-1.73c2.23-3.22,4.34-6.28,6.56-9.32a3,3,0,0,1,5.64,1.23Z"/><path class="cls-1" d="M223,192.27a41.05,41.05,0,1,1-41.05-41.05A41.09,41.09,0,0,1,223,192.27Z"/><path class="cls-2" d="M569.3,139.79C507.11,206.56,422,298,449.52,409.08c5.48,22.36,14.26,46.08,27.65,74.68,16,34.1,31.37,69.22,46.24,103.18,7.11,16.24,14.46,33,21.79,49.5h0a3,3,0,0,1,.26,1.2,3,3,0,0,1-5.66,1.21h0v0c-13.34-29.87-31.43-57.69-48.92-84.59-6.94-10.67-14.11-21.7-20.9-32.72-.9-1.46-1.83-3-2.79-4.56-15.77-25.86-39.64-64.93-71.33-64-18.14.49-34.92,22.84-46,37.63-1.42,1.88-2.75,3.66-4,5.28-24,31.37-45.45,67.52-67.59,113.75-17.93,37.61-37.19,75.86-57.24,113.69a3,3,0,0,1-2.62,1.57,2.9,2.9,0,0,1-1.21-.26,3,3,0,0,1-1.55-3.75L275.4,563.74c4.57-13.58,9.44-27.28,14.15-40.52,15-42.3,30.58-86,38.4-131.36,19.14-110.77-48.83-226-110.18-314a.5.5,0,0,1-.07-.08h0a.33.33,0,0,1-.06-.1,23.09,23.09,0,0,0-2.14-3,2.92,2.92,0,0,1-.67-1.87v-.1a3,3,0,0,1,5.59-1.35,28.25,28.25,0,0,1,2.26,3.25c38.37,54.29,66.09,96.11,89.88,135.59,3.13,5.18,6.33,11.08,9.71,17.32C337.36,255.34,356.13,290,386.54,293c19,1.87,33.86-14.06,66.32-49,8.35-9,17.81-19.14,28.81-30.58,39.7-41.15,70.71-69,82.78-78.95a3,3,0,0,1,4,.19,8.66,8.66,0,0,1,1.17,1.45A3,3,0,0,1,569.3,139.79Z"/><path class="cls-2" d="M429.25,192.27a41.06,41.06,0,1,1-41.05-41.05A41.1,41.1,0,0,1,429.25,192.27Z"/><path class="cls-3" d="M456.06,643.25a3,3,0,0,1-3.84-1.31c-20.05-37.82-39.31-76.07-57.24-113.69-21.67-45.5-43.78-82.71-67.59-113.75-2.21-2.88-4.37-5.92-6.66-9.14-8.45-11.88-17.19-24.17-29.25-29.88C275.6,368,259,391.56,248,407.17c-1.91,2.71-3.71,5.27-5.28,7.32-23.81,31.05-45.91,68.25-67.58,113.76-17.94,37.62-37.2,75.87-57.25,113.69a3,3,0,0,1-5.38-2.44l59.77-157.09c4.58-13.57,9.45-27.27,14.15-40.51,15-42.3,30.58-86,38.41-131.36,18.92-109-46-220.75-104.59-305.9a3,3,0,0,1,4.85-3.39C158.43,48.3,186,90,209.48,128.83c3.13,5.18,6.32,11.08,9.71,17.33,15.09,27.85,33.86,62.52,64.27,65.49l.19,0a16.83,16.83,0,0,0,2.84,0l.2,0c30.4-3,49.18-37.64,64.26-65.49,3.38-6.25,6.58-12.15,9.71-17.33C384.12,90,411.71,48.3,445,1.25a3,3,0,0,1,4.85,3.39C391.23,89.79,326.34,201.52,345.28,310.53c7.82,45.34,23.36,89.07,38.4,131.37,4.71,13.24,9.58,26.94,14.15,40.51L457.6,639.5A3,3,0,0,1,456.06,643.25Z"/><path class="cls-3" d="M326.1,110.91a41.05,41.05,0,1,1-41.05-41A41.1,41.1,0,0,1,326.1,110.91Z"/></g></g></svg>