<svg xmlns="http://www.w3.org/2000/svg" viewBox="0 0 3694.81 676.17"><defs><style>.cls-1{fill:#171144;}.cls-2{fill:#8dc63f;}.cls-3{fill:#be1e2d;}.cls-4{fill:#ffde17;}.cls-5{fill:#662d91;}.cls-6{fill:#ed1c24;}.cls-7{fill:#f7ec13;}</style></defs><g id="Layer_2" data-name="Layer 2"><g id="Layer_1-2" data-name="Layer 1"><path class="cls-1" d="M590.82,475.26a86,86,0,0,1-37-8,71,71,0,0,1-27.94-23.05q-4.18-6.29-4.19-12.22a18.71,18.71,0,0,1,6.81-14.67q6.81-5.93,13.44-5.93a19.31,19.31,0,0,1,10.31,3.14,51.26,51.26,0,0,1,9.25,7.33,45.34,45.34,0,0,0,13.79,8.91,43.2,43.2,0,0,0,15.54,2.62,38.52,38.52,0,0,0,19.56-5.24,42.23,42.23,0,0,0,14.67-14,34.35,34.35,0,0,0,5.58-18.86V248.63a19.77,19.77,0,0,1,6.64-15.19,22,22,0,0,1,15.36-6.12q9.78,0,15.72,6.12a21,21,0,0,1,5.93,15.19V395.29a73.88,73.88,0,0,1-11.17,39.46,86.3,86.3,0,0,1-30,29.34Q614.22,475.27,590.82,475.26Z"/><path class="cls-1" d="M951.55,349.55a135,135,0,0,1-8.73,48.88,124.56,124.56,0,0,1-24.62,40,113.9,113.9,0,0,1-37.72,27.06,115.22,115.22,0,0,1-47.66,9.78q-25.85,0-47.49-9.78a114.21,114.21,0,0,1-37.54-27.06,124.21,124.21,0,0,1-24.62-40,141.23,141.23,0,0,1,0-97.77,124.32,124.32,0,0,1,24.62-40,114.36,114.36,0,0,1,37.54-27.06q21.64-9.78,47.49-9.78a115.22,115.22,0,0,1,47.66,9.78,114,114,0,0,1,37.72,27.06,124.67,124.67,0,0,1,24.62,40A135,135,0,0,1,951.55,349.55Zm-45.4,0q0-23.4-9.43-42.43a77.1,77.1,0,0,0-25.84-30.21q-16.41-11.18-38.06-11.17t-38.07,11.17a76,76,0,0,0-25.66,30q-9.26,18.85-9.26,42.61,0,23.4,9.26,42.42a75.67,75.67,0,0,0,25.66,30.21q16.43,11.18,38.07,11.18t38.06-11.18A77,77,0,0,0,896.72,392Q906.16,373,906.15,349.55Z"/><path class="cls-1" d="M1014.05,227.32a21,21,0,0,1,14.84,6.12,20,20,0,0,1,6.46,15.19V450.47a19.81,19.81,0,0,1-6.63,15.19,22,22,0,0,1-15.37,6.11q-9.78,0-15.71-6.11a20.93,20.93,0,0,1-5.94-15.19V248.63A20.32,20.32,0,0,1,998,233.44Q1004.27,227.32,1014.05,227.32Zm-1,101.62h155.75V369.1H1013Zm155.75-101.62q9.76,0,15.71,6.12a20.92,20.92,0,0,1,5.94,15.19V450.47a20.63,20.63,0,0,1-6.11,15.19q-6.12,6.1-16.24,6.11a21,21,0,0,1-14.84-6.11,20,20,0,0,1-6.46-15.19V248.63a19.8,19.8,0,0,1,6.63-15.19A22,22,0,0,1,1168.75,227.32Z"/><path class="cls-1" d="M1428.21,227.32a17.82,17.82,0,0,1,13.61,5.59,19.61,19.61,0,0,1,5.24,14V450.47a20.88,20.88,0,0,1-21.3,21.3,29.31,29.31,0,0,1-9.25-1.57,15.91,15.91,0,0,1-7.16-4.37L1272.11,291.58l9.08-5.59V452.21a19.26,19.26,0,0,1-5.41,14q-5.41,5.6-14.14,5.59a17.79,17.79,0,0,1-13.62-5.59,19.59,19.59,0,0,1-5.24-14V248.63a20.89,20.89,0,0,1,21.3-21.31,29.6,29.6,0,0,1,10.13,1.92,14.78,14.78,0,0,1,7.68,5.77l133,169.71-5.94,4.19v-162a19.65,19.65,0,0,1,5.24-14Q1419.48,227.33,1428.21,227.32Z"/><path class="cls-1" d="M1520.74,227.32h117a21.24,21.24,0,0,1,15.19,5.77,19.51,19.51,0,0,1,6.12,14.84,18,18,0,0,1-6.12,14.14,22,22,0,0,1-15.19,5.41H1540l3.14-5.93v68.09l-2.79-2.79H1622a21.29,21.29,0,0,1,15.19,5.76,19.5,19.5,0,0,1,6.11,14.84,18,18,0,0,1-6.11,14.14A22,22,0,0,1,1622,367h-80.67l1.75-2.8v70.54l-2.79-3.14h97.42a20.62,20.62,0,0,1,15.19,6.11,19.45,19.45,0,0,1,6.12,14.14,18.55,18.55,0,0,1-6.12,14.32,21.62,21.62,0,0,1-15.19,5.59h-117a20.88,20.88,0,0,1-21.3-21.3V248.63a20.89,20.89,0,0,1,21.3-21.31Z"/><path class="cls-1" d="M1704.77,267.48a21.66,21.66,0,0,1-15.19-5.58q-6.12-5.59-6.11-14.67t6.11-14.49a22.05,22.05,0,0,1,15.19-5.42h155a21.7,21.7,0,0,1,15.19,5.59q6.1,5.59,6.11,14.67T1875,262.07a22.08,22.08,0,0,1-15.19,5.41Zm77.17,204.29q-9.78,0-16.06-6.11a20.33,20.33,0,0,1-6.29-15.19V247.93H1805V450.47a20,20,0,0,1-6.46,15.19Q1792.07,471.77,1781.94,471.77Z"/><path class="cls-1" d="M1940.13,227.32a21,21,0,0,1,14.84,6.12,20,20,0,0,1,6.46,15.19V450.47a19.81,19.81,0,0,1-6.63,15.19,22,22,0,0,1-15.37,6.11q-9.78,0-15.71-6.11a20.93,20.93,0,0,1-5.94-15.19V248.63a20.32,20.32,0,0,1,6.29-15.19Q1930.36,227.32,1940.13,227.32Zm-1.05,101.62h155.75V369.1H1939.08Zm155.75-101.62q9.77,0,15.71,6.12a20.92,20.92,0,0,1,5.94,15.19V450.47a20.63,20.63,0,0,1-6.11,15.19q-6.12,6.1-16.24,6.11a21,21,0,0,1-14.84-6.11,20,20,0,0,1-6.46-15.19V248.63a19.8,19.8,0,0,1,6.63-15.19A22,22,0,0,1,2094.83,227.32Z"/><path class="cls-1" d="M2190.16,227.32h117a21.25,21.25,0,0,1,15.19,5.77,19.5,19.5,0,0,1,6.11,14.84,18,18,0,0,1-6.11,14.14,22.06,22.06,0,0,1-15.19,5.41h-97.77l3.14-5.93v68.09l-2.79-2.79h81.71a21.31,21.31,0,0,1,15.19,5.76,19.5,19.5,0,0,1,6.11,14.84,18,18,0,0,1-6.11,14.14,22,22,0,0,1-15.19,5.42h-80.67l1.75-2.8v70.54l-2.79-3.14h97.42a20.63,20.63,0,0,1,15.19,6.11,19.44,19.44,0,0,1,6.11,14.14,18.54,18.54,0,0,1-6.11,14.32,21.64,21.64,0,0,1-15.19,5.59h-117a20.88,20.88,0,0,1-21.3-21.3V248.63a20.89,20.89,0,0,1,21.3-21.31Z"/><path class="cls-1" d="M2503.39,430.91a21.29,21.29,0,0,1,15.19,5.76,19.5,19.5,0,0,1,6.11,14.84,19.11,19.11,0,0,1-6.11,14.5,21.29,21.29,0,0,1-15.19,5.76H2389.9a20.88,20.88,0,0,1-21.3-21.3V248.63a20.28,20.28,0,0,1,6.29-15.19q6.29-6.12,16.06-6.12a21,21,0,0,1,14.84,6.12,20.06,20.06,0,0,1,6.46,15.19V436.85l-7.68-5.94Z"/><path class="cls-1" d="M2579.87,471.42q-10.14,0-15.54-5.41t-5.42-15.54v-5.94q0-10.12,5.42-15.54t15.54-5.41h4.54q10.13,0,15.54,5.41t5.41,15.54v5.94q0,10.13-5.41,15.54t-15.54,5.41Z"/><path class="cls-1" d="M2731,477.48q-23.72,0-42.68-5.93t-36.23-20.82a26.77,26.77,0,0,1-6.78-8.47,21,21,0,0,1-2.37-9.48,19.37,19.37,0,0,1,5.59-13.72,18.52,18.52,0,0,1,14.06-5.93,18,18,0,0,1,11.51,4.07,107.17,107.17,0,0,0,25.57,15.91q12.7,5.43,31.33,5.42a65.72,65.72,0,0,0,23-3.89,45.12,45.12,0,0,0,16.93-10.5,21,21,0,0,0,6.44-15.07,25.66,25.66,0,0,0-6.1-17.27q-6.11-7.12-18.63-12t-31.83-7.62a142.05,142.05,0,0,1-32.18-8.29,74.75,74.75,0,0,1-23.2-14.23,56.22,56.22,0,0,1-14.05-20.32,69.09,69.09,0,0,1-4.74-26.25q0-22,11.34-37.59t30.65-23.71q19.3-8.13,42.68-8.13a122.43,122.43,0,0,1,40.81,6.61q18.79,6.6,30.65,16.76,9.81,7.8,9.82,17.95a19.29,19.29,0,0,1-5.76,13.55,18.08,18.08,0,0,1-13.55,6.1,14.88,14.88,0,0,1-9.14-3.05,61.57,61.57,0,0,0-14.57-9,130.8,130.8,0,0,0-19.3-7.11,70.16,70.16,0,0,0-19-2.88q-14.58,0-24.56,3.73t-15.07,10.16a23.35,23.35,0,0,0-5.08,14.9q0,10.15,5.93,16.76t17.1,10.5a198.07,198.07,0,0,0,26.76,6.95,272.3,272.3,0,0,1,35.73,8.8q15.41,5.08,25.57,13a49.48,49.48,0,0,1,15.24,20q5.07,12,5.08,29.3,0,22-12.2,37.93a77.94,77.94,0,0,1-32,24.38A108,108,0,0,1,2731,477.48Z"/><path class="cls-2" d="M2934.16,289.52q19.31,0,33.69,4.06t22.36,11.35q8,7.27,8,17.44a22,22,0,0,1-4.07,12.7Q2990,341,2982.25,341a22.81,22.81,0,0,1-9-1.53,23.21,23.21,0,0,1-6.26-3.89,35.94,35.94,0,0,0-6.44-4.41q-3.39-2-10.33-3.21a68.1,68.1,0,0,0-10.33-1.19q-17.26,0-29.29,7.45a49.69,49.69,0,0,0-18.46,20.15q-6.43,12.7-6.44,29.3,0,16.26,6.61,28.95a51.7,51.7,0,0,0,18.29,20.16,49,49,0,0,0,26.92,7.45,89.84,89.84,0,0,0,14.57-1,36.07,36.07,0,0,0,10.16-3,61,61,0,0,0,8.46-5.75q3.73-3.06,11.18-3.05,8.81,0,13.55,5.59a20.45,20.45,0,0,1,4.74,13.71q0,8.47-9.48,15.41t-24.9,11.18a125.62,125.62,0,0,1-33.36,4.23q-26.76,0-46.4-12.36a82.67,82.67,0,0,1-30.31-33.7q-10.66-21.33-10.67-47.75,0-27.76,11.35-48.94a84.11,84.11,0,0,1,31.5-33.19Q2908.08,289.52,2934.16,289.52Z"/><path class="cls-3" d="M3124.83,289.52q24.38,0,37.08,10.5T3179.35,328a147.75,147.75,0,0,1,4.74,38.77v86.7a20.34,20.34,0,0,1-5.75,14.74,20.88,20.88,0,0,1-29.13,0,20.31,20.31,0,0,1-5.76-14.74v-86.7a69.53,69.53,0,0,0-2.71-20.15,27.63,27.63,0,0,0-9.82-14.39q-7.11-5.42-20.32-5.42-12.87,0-22,5.42a35,35,0,0,0-13.72,14.39,43.74,43.74,0,0,0-4.57,20.15v86.7a20.31,20.31,0,0,1-5.76,14.74,20.86,20.86,0,0,1-29.12,0,20.26,20.26,0,0,1-5.76-14.74V244.13a20.27,20.27,0,0,1,5.76-14.73,20.84,20.84,0,0,1,29.12,0,20.31,20.31,0,0,1,5.76,14.73v84l-5.08-1a75.05,75.05,0,0,1,8.47-12.36,73.07,73.07,0,0,1,13.2-12.36,70.54,70.54,0,0,1,17.28-9.32A58.36,58.36,0,0,1,3124.83,289.52Z"/><path class="cls-4" d="M3403.89,383.67q0,27.76-12.36,48.94a88.68,88.68,0,0,1-33.19,33q-20.82,11.85-46.57,11.85t-46.56-11.85a88.61,88.61,0,0,1-33.19-33q-12.37-21.17-12.37-48.94T3232,334.73a90,90,0,0,1,33.19-33.19q20.82-12,46.56-12t46.57,12a90,90,0,0,1,33.19,33.19Q3403.89,355.9,3403.89,383.67Zm-40.64,0q0-17.28-6.94-30a51.68,51.68,0,0,0-18.63-19.82,50.75,50.75,0,0,0-51.81,0,51.53,51.53,0,0,0-18.63,19.82q-6.94,12.69-6.94,30,0,16.93,6.94,29.63a51.5,51.5,0,0,0,18.63,19.81,50.69,50.69,0,0,0,51.81,0,51.65,51.65,0,0,0,18.63-19.81Q3363.24,400.61,3363.25,383.67Z"/><path class="cls-5" d="M3615.22,383.67q0,27.76-12.36,48.94a88.68,88.68,0,0,1-33.19,33q-20.82,11.85-46.57,11.85t-46.56-11.85a88.61,88.61,0,0,1-33.19-33Q3431,411.45,3431,383.67t12.37-48.94a90,90,0,0,1,33.19-33.19q20.82-12,46.56-12t46.57,12a90,90,0,0,1,33.19,33.19Q3615.22,355.9,3615.22,383.67Zm-40.64,0q0-17.28-6.94-30A51.68,51.68,0,0,0,3549,333.88a50.75,50.75,0,0,0-51.81,0,51.53,51.53,0,0,0-18.63,19.82q-6.95,12.69-6.94,30,0,16.93,6.94,29.63a51.5,51.5,0,0,0,18.63,19.81,50.69,50.69,0,0,0,51.81,0,51.65,51.65,0,0,0,18.63-19.81Q3574.57,400.61,3574.58,383.67Z"/><path class="cls-2" d="M3694.81,453.43a20.24,20.24,0,0,1-20.66,20.66,19,19,0,0,1-14.22-5.92,20.26,20.26,0,0,1-5.76-14.74V244.13a20.24,20.24,0,0,1,20.66-20.66,18.9,18.9,0,0,1,14.39,5.93,20.64,20.64,0,0,1,5.59,14.73Z"/><path class="cls-6" d="M331.5,67.79v.09a2.83,2.83,0,0,1-.53,1.63c-2.13,2.91-4.16,5.85-6.31,9l-1.13,1.62C268.88,159.48,208.4,263.66,226,365.55c7.26,42.06,21.65,82.65,35.56,121.9C266,500,270.59,513,274.91,525.88l55.76,146.54a2.77,2.77,0,0,1-1.45,3.5,2.65,2.65,0,0,1-1.13.25,2.75,2.75,0,0,1-2.44-1.47c-18.69-35.27-36.66-71-53.4-106.06-20.19-42.38-40.78-77.09-63-106.11-1.15-1.5-2.4-3.16-3.71-4.91-10.36-13.8-26-34.66-43-35.12-29.48-.82-51.74,35.61-66.45,59.74l-2.61,4.25c-6.22,10.08-12.78,20.15-19.13,29.89C58,541.56,41,567.59,28.53,595.55c-.06.13-.11.27-.17.4a2.76,2.76,0,0,1-5.05-2.24c.07-.14.13-.28.19-.42,7-15.68,14-31.67,20.74-47.14C57.91,514.92,72,482.63,86.68,451.27c12.46-26.6,20.68-48.73,25.89-69.66C138.23,277.83,58.76,192.61.74,130.4A2.76,2.76,0,0,1,.46,127a8.8,8.8,0,0,1,1.1-1.36,2.75,2.75,0,0,1,3.7-.17c11.26,9.29,40.19,35.26,77.22,73.64,10.26,10.68,19.09,20.16,26.87,28.53,30.29,32.55,44.12,47.4,61.87,45.67,28.41-2.78,46-35.16,60.1-61.19,3.14-5.79,6.11-11.26,9-16.07C261.75,160.47,286.75,122.63,319,77l1.12-1.61c2.08-3,4-5.86,6.11-8.7a2.76,2.76,0,0,1,5.27,1.15Z"/><path class="cls-6" d="M208,179.35a38.3,38.3,0,1,1-38.3-38.29A38.34,38.34,0,0,1,208,179.35Z"/><path class="cls-7" d="M531.07,130.4c-58,62.29-137.46,147.59-111.74,251.21,5.11,20.86,13.31,43,25.79,69.66,14.93,31.81,29.27,64.57,43.14,96.25,6.63,15.16,13.49,30.83,20.33,46.18h0a2.79,2.79,0,0,1,.24,1.12,2.76,2.76,0,0,1-5.28,1.13h0v0C491.1,568.06,474.22,542.12,457.9,517c-6.47-9.95-13.16-20.24-19.49-30.52q-1.26-2.06-2.6-4.26c-14.71-24.12-37-60.57-66.54-59.74-16.93.46-32.58,21.31-42.93,35.1-1.33,1.76-2.57,3.43-3.74,4.94-22.36,29.26-42.4,63-63,106.11-16.73,35.07-34.7,70.76-53.4,106.05a2.76,2.76,0,0,1-2.44,1.47,2.73,2.73,0,0,1-1.14-.25,2.78,2.78,0,0,1-1.44-3.5L256.9,525.88c4.27-12.66,8.81-25.45,13.21-37.8,14-39.45,28.52-80.25,35.82-122.53,17.85-103.34-45.55-210.82-102.79-292.92a.22.22,0,0,1,0-.08h0l-.06-.09a21.15,21.15,0,0,0-2-2.82,2.72,2.72,0,0,1-.63-1.75v-.09a2.76,2.76,0,0,1,5.22-1.26,26,26,0,0,1,2.1,3c35.8,50.65,61.66,89.66,83.85,126.48,2.92,4.83,5.9,10.34,9.06,16.17,14.07,26,31.59,58.32,59.95,61.09,17.78,1.74,31.59-13.12,61.87-45.67,7.79-8.37,16.62-17.85,26.87-28.52,37-38.39,66-64.36,77.23-73.65a2.75,2.75,0,0,1,3.7.17,8.62,8.62,0,0,1,1.09,1.36A2.75,2.75,0,0,1,531.07,130.4Z"/><path class="cls-7" d="M400.43,179.35a38.3,38.3,0,1,1-38.3-38.29A38.35,38.35,0,0,1,400.43,179.35Z"/><path class="cls-1" d="M425.43,600.05a2.69,2.69,0,0,1-1.13.25,2.75,2.75,0,0,1-2.44-1.47c-18.71-35.28-36.67-71-53.41-106.05-20.21-42.45-40.83-77.16-63-106.11-2.06-2.69-4.08-5.53-6.22-8.53-7.88-11.09-16-22.55-27.28-27.88-14.81-7-30.3,15-40.54,29.57-1.78,2.53-3.46,4.92-4.92,6.83-22.21,29-42.83,63.66-63,106.12-16.73,35.09-34.7,70.77-53.4,106.05a2.76,2.76,0,0,1-5-2.27L160.74,450c4.27-12.67,8.81-25.44,13.2-37.79,14-39.46,28.53-80.26,35.83-122.55C227.42,188,166.9,83.76,112.2,4.32a2.76,2.76,0,0,1,4.53-3.15c31.06,43.89,56.8,82.82,78.68,119,2.92,4.83,5.9,10.34,9.06,16.16,14.08,26,31.59,58.32,60,61.09l.19,0a17.45,17.45,0,0,0,2.64,0l.19,0c28.36-2.77,45.87-35.1,59.95-61.09,3.15-5.82,6.14-11.33,9.05-16.16,21.88-36.19,47.62-75.12,78.69-119a2.75,2.75,0,0,1,4.52,3.15C365,83.76,304.43,188,322.09,289.68c7.29,42.29,21.8,83.09,35.82,122.55,4.4,12.35,8.94,25.12,13.2,37.79l55.76,146.54A2.75,2.75,0,0,1,425.43,600.05Z"/><path class="cls-1" d="M304.2,103.46a38.3,38.3,0,1,1-38.29-38.29A38.34,38.34,0,0,1,304.2,103.46Z"/></g></g></svg>