<svg xmlns="http://www.w3.org/2000/svg" viewBox="0 0 2351.91 724.84"><defs><style>.cls-1{fill:#ed1c24;}.cls-2{fill:#f7ec13;}.cls-3{fill:#171144;}.cls-4{fill:#fff;}.cls-5{fill:#8dc63f;}.cls-6{fill:#be1e2d;}.cls-7{fill:#ffde17;}.cls-8{fill:#3795d2;}.cls-9{fill:#231f20;}</style></defs><g id="Layer_2" data-name="Layer 2"><g id="Layer_1-2" data-name="Layer 1"><path class="cls-1" d="M355.36,72.67v.1a3,3,0,0,1-.57,1.74c-2.27,3.12-4.45,6.28-6.76,9.61l-1.2,1.75C288.24,171,223.4,282.64,242.24,391.86c7.78,45.09,23.2,88.61,38.12,130.68,4.77,13.47,9.71,27.39,14.34,41.2l59.77,157.09a3,3,0,0,1-1.55,3.75,2.87,2.87,0,0,1-1.21.26,3,3,0,0,1-2.62-1.57c-20-37.81-39.29-76.06-57.25-113.69-21.63-45.44-43.71-82.65-67.48-113.76-1.24-1.6-2.57-3.38-4-5.25-11.11-14.8-27.9-37.16-46.13-37.65-31.6-.89-55.47,38.17-71.23,64-1,1.58-1.89,3.1-2.8,4.56-6.67,10.8-13.7,21.6-20.5,32-17.59,27-35.77,54.9-49.13,84.87l-.19.43a3,3,0,1,1-5.41-2.4l.21-.45c7.47-16.81,15-34,22.23-50.54C62.07,552,77.22,517.38,92.92,483.76c13.35-28.51,22.17-52.25,27.76-74.68C148.19,297.83,63,206.48.79,139.79a3,3,0,0,1-.3-3.66,10,10,0,0,1,1.18-1.45,3,3,0,0,1,4-.19c12.07,10,43.08,37.8,82.78,78.94,11,11.45,20.46,21.62,28.81,30.59,32.46,34.89,47.29,50.81,66.32,49,30.45-3,49.29-37.69,64.42-65.59,3.37-6.21,6.55-12.07,9.66-17.22,23-38.13,49.77-78.7,84.34-127.67l1.19-1.73c2.23-3.22,4.34-6.28,6.56-9.32a3,3,0,0,1,5.64,1.23Z"/><path class="cls-1" d="M223,192.27a41.05,41.05,0,1,1-41.05-41.05A41.09,41.09,0,0,1,223,192.27Z"/><path class="cls-2" d="M569.3,139.79C507.11,206.56,422,298,449.52,409.08c5.48,22.36,14.26,46.08,27.65,74.68,16,34.1,31.37,69.22,46.24,103.18,7.11,16.24,14.46,33,21.79,49.5h0a3,3,0,0,1,.26,1.2,3,3,0,0,1-5.66,1.21h0v0c-13.34-29.87-31.43-57.69-48.92-84.59-6.94-10.67-14.11-21.7-20.9-32.72-.9-1.46-1.83-3-2.79-4.56-15.77-25.86-39.64-64.93-71.33-64-18.14.49-34.92,22.84-46,37.63-1.42,1.88-2.75,3.66-4,5.28-24,31.37-45.45,67.52-67.59,113.75-17.93,37.61-37.19,75.86-57.24,113.69a3,3,0,0,1-2.62,1.57,2.9,2.9,0,0,1-1.21-.26,3,3,0,0,1-1.55-3.75L275.4,563.74c4.57-13.58,9.44-27.28,14.15-40.52,15-42.3,30.58-86,38.4-131.36,19.14-110.77-48.83-226-110.18-314a.5.5,0,0,1-.07-.08h0a.33.33,0,0,1-.06-.1,23.09,23.09,0,0,0-2.14-3,2.92,2.92,0,0,1-.67-1.87v-.1a3,3,0,0,1,5.59-1.35,28.25,28.25,0,0,1,2.26,3.25c38.37,54.29,66.09,96.11,89.88,135.59,3.13,5.18,6.33,11.08,9.71,17.32C337.36,255.34,356.13,290,386.54,293c19,1.87,33.86-14.06,66.32-49,8.35-9,17.81-19.14,28.81-30.58,39.7-41.15,70.71-69,82.78-78.95a3,3,0,0,1,4,.19,8.66,8.66,0,0,1,1.17,1.45A3,3,0,0,1,569.3,139.79Z"/><path class="cls-2" d="M429.25,192.27a41.06,41.06,0,1,1-41.05-41.05A41.1,41.1,0,0,1,429.25,192.27Z"/><path class="cls-3" d="M456.06,643.25a3,3,0,0,1-3.84-1.31c-20.05-37.82-39.31-76.07-57.24-113.69-21.67-45.5-43.78-82.71-67.59-113.75-2.21-2.88-4.37-5.92-6.66-9.14-8.45-11.88-17.19-24.17-29.25-29.88C275.6,368,259,391.56,248,407.17c-1.91,2.71-3.71,5.27-5.28,7.32-23.81,31.05-45.91,68.25-67.58,113.76-17.94,37.62-37.2,75.87-57.25,113.69a3,3,0,0,1-5.38-2.44l59.77-157.09c4.58-13.57,9.45-27.27,14.15-40.51,15-42.3,30.58-86,38.41-131.36,18.92-109-46-220.75-104.59-305.9a3,3,0,0,1,4.85-3.39C158.43,48.3,186,90,209.48,128.83c3.13,5.18,6.32,11.08,9.71,17.33,15.09,27.85,33.86,62.52,64.27,65.49l.19,0a16.83,16.83,0,0,0,2.84,0l.2,0c30.4-3,49.18-37.64,64.26-65.49,3.38-6.25,6.58-12.15,9.71-17.33C384.12,90,411.71,48.3,445,1.25a3,3,0,0,1,4.85,3.39C391.23,89.79,326.34,201.52,345.28,310.53c7.82,45.34,23.36,89.07,38.4,131.37,4.71,13.24,9.58,26.94,14.15,40.51L457.6,639.5A3,3,0,0,1,456.06,643.25Z"/><path class="cls-3" d="M326.1,110.91a41.05,41.05,0,1,1-41.05-41A41.1,41.1,0,0,1,326.1,110.91Z"/><path class="cls-3" d="M645.52,265.58a72.85,72.85,0,0,1-31.33-6.79,60.25,60.25,0,0,1-23.64-19.51A18.72,18.72,0,0,1,587,228.93a15.84,15.84,0,0,1,5.77-12.41q5.76-5,11.38-5a16.27,16.27,0,0,1,8.71,2.66,43.58,43.58,0,0,1,7.84,6.2,38.36,38.36,0,0,0,11.67,7.54,36.4,36.4,0,0,0,13.15,2.22,32.52,32.52,0,0,0,16.55-4.44,35.7,35.7,0,0,0,12.42-11.82,29.05,29.05,0,0,0,4.73-16V73.77a16.77,16.77,0,0,1,5.61-12.85,18.61,18.61,0,0,1,13-5.18q8.28,0,13.3,5.18a17.72,17.72,0,0,1,5,12.85V197.9a62.58,62.58,0,0,1-9.46,33.4,73.11,73.11,0,0,1-25.42,24.83A68.85,68.85,0,0,1,645.52,265.58Z"/><path class="cls-3" d="M950.82,159.19a114.37,114.37,0,0,1-7.39,41.37A105.45,105.45,0,0,1,922.6,234.4a96.44,96.44,0,0,1-31.92,22.91,97.7,97.7,0,0,1-40.35,8.27,95.77,95.77,0,0,1-72-31.18,105.13,105.13,0,0,1-20.84-33.84,114.15,114.15,0,0,1-7.39-41.37,114.21,114.21,0,0,1,7.39-41.38A105.13,105.13,0,0,1,778.37,84a95.77,95.77,0,0,1,72-31.18,97.7,97.7,0,0,1,40.35,8.27A96.44,96.44,0,0,1,922.6,84a105.45,105.45,0,0,1,20.83,33.84A114.42,114.42,0,0,1,950.82,159.19Zm-38.42,0a79.79,79.79,0,0,0-8-35.91,65.33,65.33,0,0,0-21.87-25.57q-13.9-9.45-32.22-9.46t-32.21,9.46a64.26,64.26,0,0,0-21.72,25.42q-7.85,16-7.84,36.06a80.85,80.85,0,0,0,7.84,35.9,63.89,63.89,0,0,0,21.72,25.57q13.89,9.47,32.21,9.46t32.22-9.46a65.19,65.19,0,0,0,21.87-25.57A79.71,79.71,0,0,0,912.4,159.19Z"/><path class="cls-3" d="M1003.72,55.74a17.76,17.76,0,0,1,12.56,5.18,17,17,0,0,1,5.47,12.85V244.6a16.8,16.8,0,0,1-5.62,12.86,18.64,18.64,0,0,1-13,5.17q-8.28,0-13.3-5.17a17.74,17.74,0,0,1-5-12.86V73.77a17.22,17.22,0,0,1,5.32-12.85A18.7,18.7,0,0,1,1003.72,55.74Zm-.89,86h131.82v34H1002.83Zm131.82-86q8.26,0,13.3,5.18a17.75,17.75,0,0,1,5,12.85V244.6a17.5,17.5,0,0,1-5.17,12.86q-5.17,5.16-13.74,5.17a17.77,17.77,0,0,1-12.56-5.17A17,17,0,0,1,1116,244.6V73.77a16.77,16.77,0,0,1,5.61-12.85A18.61,18.61,0,0,1,1134.65,55.74Z"/><path class="cls-3" d="M1354.24,55.74a15.06,15.06,0,0,1,11.52,4.73,16.62,16.62,0,0,1,4.44,11.82V244.6a17.68,17.68,0,0,1-18,18,24.86,24.86,0,0,1-7.83-1.33,13.48,13.48,0,0,1-6.06-3.7L1222.13,110.12l7.68-4.72V246.08a16.33,16.33,0,0,1-4.58,11.82,15.94,15.94,0,0,1-12,4.73,15.1,15.1,0,0,1-11.53-4.73,16.64,16.64,0,0,1-4.43-11.82V73.77a17.68,17.68,0,0,1,18-18,25,25,0,0,1,8.57,1.63,12.4,12.4,0,0,1,6.5,4.88L1343,205.88l-5,3.55V72.29a16.62,16.62,0,0,1,4.44-11.82Q1346.84,55.75,1354.24,55.74Z"/><path class="cls-3" d="M1432.55,55.74h99a18,18,0,0,1,12.86,4.88,16.52,16.52,0,0,1,5.17,12.56,15.24,15.24,0,0,1-5.17,12,18.67,18.67,0,0,1-12.86,4.58h-82.75l2.66-5v57.63L1449.1,140h69.16a18,18,0,0,1,12.86,4.88,16.52,16.52,0,0,1,5.17,12.56,15.24,15.24,0,0,1-5.17,12,18.67,18.67,0,0,1-12.86,4.58H1450l1.48-2.36v59.7l-2.37-2.66h82.46a17.5,17.5,0,0,1,12.86,5.17,16.47,16.47,0,0,1,5.17,12,15.7,15.7,0,0,1-5.17,12.12,18.37,18.37,0,0,1-12.86,4.73h-99a17.68,17.68,0,0,1-18-18V73.77a17.7,17.7,0,0,1,18-18Z"/><path class="cls-3" d="M1588.3,89.73A18.28,18.28,0,0,1,1575.45,85a16,16,0,0,1-5.17-12.41q0-7.68,5.17-12.27a18.68,18.68,0,0,1,12.85-4.58h131.23a18.34,18.34,0,0,1,12.85,4.73,16,16,0,0,1,5.18,12.41q0,7.7-5.18,12.27a18.65,18.65,0,0,1-12.85,4.58Zm65.32,172.9a18.7,18.7,0,0,1-13.59-5.17,17.21,17.21,0,0,1-5.32-12.86V73.18h38.42V244.6a17,17,0,0,1-5.47,12.86Q1662.19,262.62,1653.62,262.63Z"/><path class="cls-3" d="M1787.5,55.74a17.76,17.76,0,0,1,12.56,5.18,17,17,0,0,1,5.47,12.85V244.6a16.8,16.8,0,0,1-5.62,12.86,18.64,18.64,0,0,1-13,5.17q-8.28,0-13.3-5.17a17.73,17.73,0,0,1-5-12.86V73.77a17.19,17.19,0,0,1,5.32-12.85A18.67,18.67,0,0,1,1787.5,55.74Zm-.89,86h131.82v34H1786.61Zm131.82-86q8.27,0,13.3,5.18a17.71,17.71,0,0,1,5,12.85V244.6a17.46,17.46,0,0,1-5.17,12.86q-5.17,5.16-13.74,5.17a17.77,17.77,0,0,1-12.56-5.17,17,17,0,0,1-5.47-12.86V73.77a16.74,16.74,0,0,1,5.62-12.85A18.59,18.59,0,0,1,1918.43,55.74Z"/><path class="cls-3" d="M1999.11,55.74h99A18,18,0,0,1,2111,60.62a16.52,16.52,0,0,1,5.17,12.56,15.24,15.24,0,0,1-5.17,12,18.67,18.67,0,0,1-12.86,4.58h-82.75l2.66-5v57.63l-2.37-2.37h69.16a18,18,0,0,1,12.86,4.88,16.52,16.52,0,0,1,5.17,12.56,15.24,15.24,0,0,1-5.17,12,18.67,18.67,0,0,1-12.86,4.58h-68.27l1.48-2.36v59.7l-2.37-2.66h82.46a17.5,17.5,0,0,1,12.86,5.17,16.47,16.47,0,0,1,5.17,12A15.7,15.7,0,0,1,2111,257.9a18.37,18.37,0,0,1-12.86,4.73h-99a17.68,17.68,0,0,1-18-18V73.77a17.7,17.7,0,0,1,18-18Z"/><path class="cls-3" d="M2264.22,228.05a18,18,0,0,1,12.85,4.87,16.51,16.51,0,0,1,5.17,12.57,16.13,16.13,0,0,1-5.17,12.26,18,18,0,0,1-12.85,4.88h-96.06a17.68,17.68,0,0,1-18-18V73.77a17.22,17.22,0,0,1,5.32-12.85,18.7,18.7,0,0,1,13.6-5.18,17.76,17.76,0,0,1,12.56,5.18,17,17,0,0,1,5.47,12.85v159.3l-6.5-5Z"/><path class="cls-3" d="M2328.94,262.33q-8.58,0-13.15-4.58t-4.58-13.15v-5q0-8.56,4.58-13.15t13.15-4.58h3.84q8.56,0,13.15,4.58t4.58,13.15v5q0,8.58-4.58,13.15t-13.15,4.58Z"/><rect class="cls-3" x="587" y="289.84" width="937.05" height="269.78" rx="52.81"/><path class="cls-4" d="M714,523.78a111.73,111.73,0,0,1-33.28-4.62Q666,514.54,652.5,502.91a20.65,20.65,0,0,1-5.28-6.6,16.43,16.43,0,0,1-1.85-7.4,15.15,15.15,0,0,1,4.36-10.69,14.44,14.44,0,0,1,11-4.62,14,14,0,0,1,9,3.17,84.37,84.37,0,0,0,19.94,12.41q9.9,4.23,24.43,4.22a51.41,51.41,0,0,0,18-3,35.33,35.33,0,0,0,13.21-8.19,16.39,16.39,0,0,0,5-11.75A20,20,0,0,0,745.47,457q-4.76-5.55-14.53-9.38t-24.82-5.94A111,111,0,0,1,681,435.17a58.31,58.31,0,0,1-18.09-11.09,43.75,43.75,0,0,1-11-15.85,53.94,53.94,0,0,1-3.7-20.47q0-17.16,8.85-29.32A55.35,55.35,0,0,1,681,340a84.83,84.83,0,0,1,33.28-6.34,95.19,95.19,0,0,1,31.82,5.15q14.65,5.14,23.9,13.07,7.66,6.07,7.66,14a15.06,15.06,0,0,1-4.49,10.56,14.07,14.07,0,0,1-10.56,4.76,11.55,11.55,0,0,1-7.13-2.38,48.32,48.32,0,0,0-11.36-7,101.08,101.08,0,0,0-15-5.54A54.41,54.41,0,0,0,714.31,364q-11.37,0-19.15,2.91t-11.76,7.92a18.23,18.23,0,0,0-4,11.62,18.79,18.79,0,0,0,4.63,13.07q4.6,5.16,13.33,8.19a154.11,154.11,0,0,0,20.87,5.42A210.71,210.71,0,0,1,746.13,420a65.3,65.3,0,0,1,19.94,10.17A38.62,38.62,0,0,1,778,445.73q4,9.38,4,22.85,0,17.18-9.51,29.58a60.73,60.73,0,0,1-25,19A84.17,84.17,0,0,1,714,523.78Z"/><path class="cls-5" d="M872.5,377.2a96.91,96.91,0,0,1,26.28,3.17q11.22,3.17,17.43,8.84a17.81,17.81,0,0,1,6.21,13.6,17.21,17.21,0,0,1-3.17,9.91,10.51,10.51,0,0,1-9.24,4.62,17.9,17.9,0,0,1-7-1.19,18.32,18.32,0,0,1-4.89-3,28.1,28.1,0,0,0-5-3.44,24.4,24.4,0,0,0-8.05-2.51,53.72,53.72,0,0,0-8.06-.92q-13.47,0-22.84,5.81a38.76,38.76,0,0,0-14.4,15.71,50,50,0,0,0-5,22.85,48.26,48.26,0,0,0,5.14,22.58,40.33,40.33,0,0,0,14.27,15.71,38.12,38.12,0,0,0,21,5.81,70.08,70.08,0,0,0,11.36-.79,28.38,28.38,0,0,0,7.92-2.37,48.58,48.58,0,0,0,6.61-4.49c1.93-1.59,4.84-2.38,8.71-2.38q6.87,0,10.57,4.36A16,16,0,0,1,924,499.74q0,6.61-7.39,12t-19.41,8.72a98.46,98.46,0,0,1-26,3.3q-20.86,0-36.18-9.64a64.52,64.52,0,0,1-23.64-26.28q-8.31-16.64-8.32-37.24,0-21.66,8.85-38.16a65.56,65.56,0,0,1,24.56-25.89Q852.17,377.2,872.5,377.2Z"/><path class="cls-6" d="M1021.19,377.2q19,0,28.92,8.18t13.6,21.79a115,115,0,0,1,3.7,30.24V505a15.81,15.81,0,0,1-4.49,11.48,16.24,16.24,0,0,1-22.71,0,15.77,15.77,0,0,1-4.49-11.48V437.41a54.59,54.59,0,0,0-2.11-15.71,21.64,21.64,0,0,0-7.66-11.23q-5.55-4.22-15.85-4.22-10,0-17.17,4.22a27.33,27.33,0,0,0-10.69,11.23,34.08,34.08,0,0,0-3.57,15.71V505a15.81,15.81,0,0,1-4.49,11.48,16.24,16.24,0,0,1-22.71,0A15.77,15.77,0,0,1,947,505V341.81a15.81,15.81,0,0,1,4.49-11.49,16.26,16.26,0,0,1,22.71,0,15.85,15.85,0,0,1,4.49,11.49V407.3l-4-.79a59,59,0,0,1,6.6-9.64,57.62,57.62,0,0,1,10.3-9.64,55.18,55.18,0,0,1,13.47-7.26A45.5,45.5,0,0,1,1021.19,377.2Z"/><path class="cls-7" d="M1238.82,450.62q0,21.66-9.64,38.16a69.21,69.21,0,0,1-25.88,25.75,75.91,75.91,0,0,1-72.63,0,69.17,69.17,0,0,1-25.89-25.75q-9.65-16.5-9.64-38.16t9.64-38.16a70.2,70.2,0,0,1,25.89-25.89,75.06,75.06,0,0,1,72.63,0,70.25,70.25,0,0,1,25.88,25.89Q1238.81,429,1238.82,450.62Zm-31.69,0q0-13.47-5.42-23.37a40.31,40.31,0,0,0-14.52-15.46,39.61,39.61,0,0,0-40.41,0,40.26,40.26,0,0,0-14.53,15.46q-5.41,9.9-5.41,23.37,0,13.2,5.41,23.11a40.31,40.31,0,0,0,14.53,15.45,39.61,39.61,0,0,0,40.41,0,40.36,40.36,0,0,0,14.52-15.45Q1207.13,463.83,1207.13,450.62Z"/><path class="cls-8" d="M1403.62,450.62q0,21.66-9.64,38.16a69.14,69.14,0,0,1-25.88,25.75,75.91,75.91,0,0,1-72.63,0,69.07,69.07,0,0,1-25.88-25.75q-9.64-16.5-9.64-38.16t9.64-38.16a70.1,70.1,0,0,1,25.88-25.89,75.06,75.06,0,0,1,72.63,0A70.18,70.18,0,0,1,1394,412.46Q1403.63,429,1403.62,450.62Zm-31.69,0q0-13.47-5.42-23.37A40.31,40.31,0,0,0,1352,411.79a39.61,39.61,0,0,0-40.41,0,40.26,40.26,0,0,0-14.53,15.46q-5.41,9.9-5.41,23.37,0,13.2,5.41,23.11a40.31,40.31,0,0,0,14.53,15.45,39.61,39.61,0,0,0,40.41,0,40.36,40.36,0,0,0,14.52-15.45Q1371.92,463.83,1371.93,450.62Z"/><path class="cls-5" d="M1465.68,505a15.8,15.8,0,0,1-16.11,16.11,14.82,14.82,0,0,1-11.09-4.63A15.81,15.81,0,0,1,1434,505V341.81a15.79,15.79,0,0,1,16.11-16.11,14.76,14.76,0,0,1,11.23,4.62,16.11,16.11,0,0,1,4.35,11.49Z"/><path class="cls-9" d="M1007.15,643.55c0,6.26-.11,12.53,0,18.79.2,10.11-5.65,16.89-15.42,19.21-7.1,1.69-14,.53-20.78-1.54a8.83,8.83,0,0,1-3-1.72c-1.92-1.6-2.21-3.85-1-6.15a4.45,4.45,0,0,1,5.44-2.12c1.19.34,2.33.84,3.49,1.27,4,1.48,8.1,2.4,12.44,1.53,7.29-1.46,9.06-6,8.81-12,0-.35-.36-1-.47-1a2.66,2.66,0,0,0-1.33.57,18.5,18.5,0,0,1-10.93,5.23,20,20,0,0,1-17.8-7.22,24.3,24.3,0,0,1-5.7-16.12c-.06-6.12,1.3-11.69,5-16.61a20.28,20.28,0,0,1,22.71-7.06,29.85,29.85,0,0,1,6.35,3.54c1.6,1.05,1.8,1.08,2.26-.74a4.93,4.93,0,0,1,4.31-3.76c2.54-.16,4.4.81,5.15,2.83a7.23,7.23,0,0,1,.36,2.46C1007.16,629.83,1007.15,636.69,1007.15,643.55Zm-9.4-1.84a39,39,0,0,0-1.19-5.82c-1.9-5.3-5.66-8.56-11.41-9a12.48,12.48,0,0,0-12.38,6.4,16.5,16.5,0,0,0-2.11,9.08c.09,7.1,5.07,14.88,14.82,14.06a11.94,11.94,0,0,0,8.95-4.93A16.82,16.82,0,0,0,997.75,641.71Z"/><path class="cls-9" d="M803.84,641.68c0-6.06,0-12.13,0-18.19a4.93,4.93,0,0,1,6.95-4.64,4.81,4.81,0,0,1,2.88,3.31c.67,2.22.83,2.26,2.54.6a17.54,17.54,0,0,1,16.2-4.81,11.42,11.42,0,0,1,8.43,6.25c1.43,2.67,1.46,2.64,3.38.39,2.85-3.36,6.18-6.07,10.71-6.75a18.9,18.9,0,0,1,8.55.52,11.38,11.38,0,0,1,7.73,7.89,29.49,29.49,0,0,1,1.47,8c.18,8.57.08,17.15.06,25.73a4.71,4.71,0,0,1-3.74,4.79,4.83,4.83,0,0,1-5.7-2.66,10.68,10.68,0,0,1-.66-3.85c-.06-7.22,0-14.45,0-21.67a15.5,15.5,0,0,0-.14-2.26c-.81-5.36-3.88-7.82-9.29-7.46-5.58.37-9.49,4.07-9.67,9.66-.25,7.73-.2,15.47-.25,23.21a5,5,0,0,1-6.7,4.89,4.69,4.69,0,0,1-3.2-4.6c0-7.06,0-14.13,0-21.19a32.74,32.74,0,0,0-.37-4.64c-.84-5.4-4.31-8-9.77-7.28-5.73.71-9.2,4.61-9.21,10.37,0,7.18,0,14.36,0,21.55a5.89,5.89,0,0,1-1.58,4.61,4.93,4.93,0,0,1-5.55,1.06,4.51,4.51,0,0,1-3-4.48C803.82,653.89,803.84,647.79,803.84,641.68Z"/><path class="cls-9" d="M639.27,646.63c0,2.91-.06,5.83,0,8.74a5.59,5.59,0,0,1-2.93,5.25,35.28,35.28,0,0,1-14.05,4.9,31,31,0,0,1-16.14-1.92c-11.15-4.7-18-13-19.78-25a29.44,29.44,0,0,1,7.15-24.27,30.68,30.68,0,0,1,19.93-10.9,31.65,31.65,0,0,1,19.33,3.12,4.77,4.77,0,0,1,2.55,5.1,4.9,4.9,0,0,1-4.07,4.16,8,8,0,0,1-3.37-.57,29.77,29.77,0,0,0-8.26-1.94,20.06,20.06,0,0,0-15.18,5,20.57,20.57,0,0,0-7.38,15.3,21.22,21.22,0,0,0,18.15,21.87,31.54,31.54,0,0,0,11.16-1,2,2,0,0,0,1.77-2.21c0-2.67,0-5.35,0-8,0-1.37-.53-1.87-1.92-1.9-2.12,0-4.24,0-6.35-.06-3.39-.15-5.35-2.34-5.12-5.61a4.66,4.66,0,0,1,4.42-4.42q7.8-.12,15.6,0a4.64,4.64,0,0,1,4.46,4.75c.07,3.19,0,6.38,0,9.57Z"/><path class="cls-9" d="M1566.75,632.65q0,13.35,0,26.68c0,2.69-1.09,4.36-3.26,5.2a5,5,0,0,1-6.39-2.47c-.87-1.75-1.21-1.83-2.71-.59-7.89,6.49-18.65,5.33-25.54-1.05-5.16-4.77-7.43-10.78-7.54-17.75a28.17,28.17,0,0,1,3.13-14.18,20.29,20.29,0,0,1,29.24-7.52,5.09,5.09,0,0,0,.89.59c.49.2,1.17.58,1.48.39s.53-.94.53-1.45c0-5,0-9.89,0-14.84a5,5,0,0,1,6.79-4.83,4.83,4.83,0,0,1,3.31,4.55c.06,2.27,0,4.54,0,6.81v20.46Zm-35.75,9a16.92,16.92,0,0,0,1.78,8c4.2,8.35,15,8.72,20.24,3.06s5.37-16.11.26-21.69a12.43,12.43,0,0,0-19.31.89A15.13,15.13,0,0,0,1531,641.65Z"/><path class="cls-9" d="M1907.44,634.46V611.24c0-.64,0-1.28,0-1.91.21-3.31,2.26-5.3,5.57-5.31q14.34,0,28.67,0h.36c3.13.1,5.07,2,5,5,0,2.79-1.92,4.56-5,4.58-7.08,0-14.16,0-21.23,0-2.48,0-2.79.31-2.79,2.74,0,3.4,0,6.79,0,10.18,0,1.89.45,2.33,2.35,2.33,5.48,0,11,0,16.44,0a12,12,0,0,1,2.61.24,4.72,4.72,0,0,1,3.75,5.35,4.45,4.45,0,0,1-4.71,4c-5.92,0-11.84,0-17.76,0-2.36,0-2.68.34-2.68,2.73q0,5.75,0,11.49c0,2.06.4,2.47,2.45,2.47h20.16a19.59,19.59,0,0,1,2,0,4.76,4.76,0,0,1,4.4,4.7,4.48,4.48,0,0,1-4.18,4.81,13.55,13.55,0,0,1-1.8.07h-27.47c-4.26,0-6.19-1.89-6.21-6.13,0-8.1,0-16.2,0-24.3Z"/><path class="cls-9" d="M1509.87,641.31c0,6.06,0,12.12,0,18.18a4.91,4.91,0,0,1-3.17,5,5,5,0,0,1-6.49-2.47c-.84-1.7-1.2-1.78-2.63-.61a19.42,19.42,0,0,1-25.82-1.17,23.9,23.9,0,0,1-7.31-17.38,28.29,28.29,0,0,1,3-14.21,20.28,20.28,0,0,1,29.45-7.6l.3.2c2,1.33,2,1.32,3-.8a5,5,0,0,1,5.6-2.74,4.78,4.78,0,0,1,4,4.33,15.25,15.25,0,0,1,.08,2v17.23Zm-35.75.41a16.73,16.73,0,0,0,1.76,7.83,12.59,12.59,0,0,0,20.3,3.1c5.1-5.56,5.32-16.16.2-21.7a12.43,12.43,0,0,0-19.31,1A15.38,15.38,0,0,0,1474.12,641.72Z"/><path class="cls-9" d="M1436.64,645h-13.31c-2,0-2.45.62-1.8,2.5a13.77,13.77,0,0,0,12.46,9,17.74,17.74,0,0,0,10.48-2.74c1.8-1.16,3.8-1.58,5.77-.31a4.12,4.12,0,0,1,.79,6.19,14.2,14.2,0,0,1-3.28,2.76c-8.66,5.06-21.08,4.53-28.7-1.74a21.48,21.48,0,0,1-8-15,28.74,28.74,0,0,1,1.91-14.56c5.71-12.95,21.74-17.86,33-8.95a22.62,22.62,0,0,1,9.13,17.47c.14,3.55-1.75,5.42-5.3,5.44-4.4,0-8.8,0-13.2,0Zm-4-8.21h9c2.57,0,3.2-1,2.15-3.38a8.69,8.69,0,0,0-.8-1.47,11.9,11.9,0,0,0-11.11-5.08c-4.9.37-8.48,2.58-10.19,7.37-.66,1.86-.25,2.54,1.74,2.55C1426.44,636.82,1429.52,636.81,1432.6,636.81Z"/><path class="cls-9" d="M1603.93,645h-13.31c-2.07,0-2.5.64-1.8,2.59a13.71,13.71,0,0,0,12.51,8.86,17.53,17.53,0,0,0,10.37-2.72c1.84-1.18,3.88-1.62,5.87-.26a4.09,4.09,0,0,1,.73,6.11,14.21,14.21,0,0,1-3.37,2.82c-8.71,5-21.13,4.49-28.79-1.91a21.46,21.46,0,0,1-7.84-15,28.77,28.77,0,0,1,1.91-14.45c5.69-13,21.72-17.89,33-9,5.78,4.55,9.07,10.56,9.17,18a4.6,4.6,0,0,1-4.8,4.86c-4.56,0-9.12,0-13.68,0Zm-4-8.21h0c3.23,0,6.47,0,9.7,0,1.5,0,2.09-.7,1.75-2.14a7.8,7.8,0,0,0-1.19-2.7,11.77,11.77,0,0,0-11.11-5.06c-4.84.37-8.4,2.54-10.12,7.28-.71,2-.31,2.62,1.74,2.63C1593.73,636.82,1596.81,636.81,1599.89,636.81Z"/><path class="cls-9" d="M2178.4,645h-13.32c-2.06,0-2.48.65-1.78,2.6a13.73,13.73,0,0,0,12.54,8.85,17.6,17.6,0,0,0,10.36-2.73c1.84-1.18,3.89-1.61,5.86-.24a4.08,4.08,0,0,1,.71,6.11,14.41,14.41,0,0,1-3.37,2.82c-8.71,5-21.1,4.45-28.7-1.86a21.51,21.51,0,0,1-7.92-15.07,28.72,28.72,0,0,1,1.92-14.44c5.7-13,21.73-17.87,33-9,5.74,4.53,9,10.5,9.15,17.94a4.62,4.62,0,0,1-4.94,5c-4.52,0-9,0-13.55,0Zm-4-8.21h0c3.23,0,6.47,0,9.71,0,1.49,0,2.08-.7,1.73-2.15a8,8,0,0,0-1.19-2.7,11.78,11.78,0,0,0-11.11-5.05c-4.85.38-8.41,2.55-10.12,7.29-.71,1.94-.3,2.61,1.75,2.62C2168.23,636.82,2171.3,636.81,2174.38,636.81Z"/><path class="cls-9" d="M2333.43,645h-13.31c-2.07,0-2.5.64-1.8,2.58a13.71,13.71,0,0,0,12.51,8.87,17.53,17.53,0,0,0,10.37-2.72c1.84-1.18,3.88-1.62,5.87-.26a4.09,4.09,0,0,1,.74,6.11,14.26,14.26,0,0,1-3.38,2.82c-8.71,5-21.13,4.49-28.78-1.91a21.43,21.43,0,0,1-7.85-15,28.88,28.88,0,0,1,1.91-14.45c5.69-13,21.72-17.89,33-9,5.77,4.55,9.06,10.56,9.16,18a4.6,4.6,0,0,1-4.8,4.86c-4.56,0-9.12,0-13.68,0Zm-4-8.21c3,0,6,0,9,0,2.42,0,3.05-1,2.09-3.26a8,8,0,0,0-.78-1.48,11.88,11.88,0,0,0-11.17-5.19c-5,.36-8.55,2.62-10.24,7.47-.62,1.78-.18,2.44,1.76,2.45C2323.23,636.82,2326.34,636.81,2329.46,636.81Z"/><path class="cls-9" d="M2074,645h-13.32c-2.05,0-2.48.65-1.77,2.6a13.72,13.72,0,0,0,12.53,8.85,17.63,17.63,0,0,0,10.37-2.73c1.84-1.18,3.88-1.61,5.86-.24a4.08,4.08,0,0,1,.71,6.11,14.26,14.26,0,0,1-3.38,2.82c-8.71,5-21.1,4.45-28.69-1.86a21.52,21.52,0,0,1-7.93-15.07,28.72,28.72,0,0,1,1.92-14.44c5.7-13,21.74-17.87,33.05-9,5.74,4.53,9,10.5,9.14,17.94a4.62,4.62,0,0,1-4.93,5c-4.52,0-9,0-13.56,0Zm-4-8.21h0c3.23,0,6.47,0,9.7,0,1.5,0,2.09-.7,1.74-2.14a7.66,7.66,0,0,0-1.19-2.71,11.76,11.76,0,0,0-11.11-5.05c-4.84.37-8.4,2.55-10.12,7.28-.7,2-.3,2.62,1.75,2.63C2063.84,636.82,2066.91,636.81,2070,636.81Z"/><path class="cls-9" d="M1305.61,645h-13.32c-2,0-2.43.63-1.78,2.51a13.77,13.77,0,0,0,12.47,9,17.73,17.73,0,0,0,10.48-2.75c1.8-1.16,3.81-1.57,5.77-.29a4.11,4.11,0,0,1,.77,6.19,14.58,14.58,0,0,1-3.28,2.75c-8.67,5.06-21.09,4.52-28.7-1.75a21.49,21.49,0,0,1-8-15,28.75,28.75,0,0,1,1.91-14.56c5.72-12.94,21.76-17.84,33.06-8.92a22.56,22.56,0,0,1,9.13,17.95,4.61,4.61,0,0,1-4.84,4.93c-4.56,0-9.12,0-13.68,0Zm-3.95-8.21c3,0,6,0,9,0,2.44,0,3.07-1,2.11-3.24a7.46,7.46,0,0,0-.84-1.58,11.89,11.89,0,0,0-11.21-5.1c-4.92.39-8.45,2.65-10.13,7.45-.63,1.78-.19,2.45,1.74,2.46C1295.43,636.82,1298.55,636.81,1301.66,636.81Z"/><path class="cls-9" d="M688.88,641.51a22.58,22.58,0,0,1,6-16.39,22.25,22.25,0,0,1,14.53-7.37c6.68-.7,12.84.73,18.1,5.07a22.54,22.54,0,0,1,8.39,15.86c.47,5,0,9.9-2.37,14.44-3.93,7.45-10.14,11.59-18.53,12.5a22.85,22.85,0,0,1-16.57-4.21C691.87,656.54,688.65,649.91,688.88,641.51Zm10.09.84a22.42,22.42,0,0,0,.55,3.86c1.56,5.36,4.91,9,10.56,10.06a12.9,12.9,0,0,0,13.59-6c2.64-4.22,2.89-8.81,1.61-13.49a13.19,13.19,0,0,0-19.2-8.22C701,631.34,699,636,699,642.35Z"/><path class="cls-9" d="M772.48,617.52c5.65-.21,15.19,5.38,18.51,15.35,3.15,9.49,2,18.53-5.2,26a22.14,22.14,0,0,1-14.72,6.75c-6.15.49-11.82-.81-16.7-4.61a22.59,22.59,0,0,1-9.12-18c-.14-5.07.61-9.89,3.33-14.24C753.25,621.34,760.07,617.73,772.48,617.52Zm-17.21,24.17a30.2,30.2,0,0,0,.63,4.48c1.56,5.4,4.93,9.07,10.65,10.11a12.9,12.9,0,0,0,13.55-6.12c2.59-4.19,2.84-8.74,1.59-13.39A13.19,13.19,0,0,0,761,629.46C756.91,632.44,755.35,636.72,755.27,641.69Z"/><path class="cls-9" d="M1781.93,641.51a22.6,22.6,0,0,1,6-16.38,22.22,22.22,0,0,1,14.53-7.38c6.68-.7,12.84.73,18.1,5.06a22.57,22.57,0,0,1,8.39,15.75c.48,5,0,10-2.36,14.56-3.94,7.45-10.15,11.58-18.53,12.5a22.92,22.92,0,0,1-16.58-4.2C1784.92,656.55,1781.7,649.92,1781.93,641.51Zm23.29,14.94a12.75,12.75,0,0,0,11.33-6c3.48-5.11,3.29-12.73-.32-18.07-4.89-7.24-16-7.42-21.21-.39-2.54,3.44-3.18,7.31-2.93,11.44C1792.51,650.48,1798.3,656.71,1805.22,656.45Z"/><path class="cls-9" d="M1067.35,604h14a5.08,5.08,0,0,1,4.56,2.16,4.75,4.75,0,0,1-3.67,7.43c-1.08.08-2.16,0-3.24,0h-18c-2.15,0-2.53.38-2.54,2.51q0,5.43,0,10.88c0,1.89.44,2.33,2.35,2.33,5,0,10.07,0,15.11,0a14.63,14.63,0,0,1,3.43.41,4.29,4.29,0,0,1,3.33,4.29,4.43,4.43,0,0,1-3.17,4.66,13.27,13.27,0,0,1-3.55.48c-5,0-9.91,0-14.87,0-2.29,0-2.64.35-2.64,2.65,0,5.86,0,11.73,0,17.59a5.13,5.13,0,0,1-5.71,5.35,4.81,4.81,0,0,1-4.52-3.49,11.28,11.28,0,0,1-.37-3.07q0-23.87,0-47.74a11.43,11.43,0,0,1,.18-2.26,4.93,4.93,0,0,1,5.13-4.27C1057.91,604,1062.63,604,1067.35,604Z"/><path class="cls-9" d="M908.94,641.6c0-6.06,0-12.13,0-18.19a4.91,4.91,0,0,1,6.9-4.57,4.71,4.71,0,0,1,2.84,3c.13.38.2.77.33,1.15.36,1.12.82,1.26,1.7.5s1.79-1.72,2.78-2.46c5.07-3.81,10.74-4.34,16.63-2.56a11.32,11.32,0,0,1,7.74,8.34,38,38,0,0,1,1.37,9.06c.19,7.57.07,15.16.06,22.73,0,.6,0,1.2,0,1.8a4.83,4.83,0,0,1-4.35,4.39,4.92,4.92,0,0,1-5.4-3.41,11.62,11.62,0,0,1-.34-2.95c0-7.26,0-14.52,0-21.78a11.64,11.64,0,0,0-1.41-6.11c-2-3.35-5.23-4-8.74-3.71-6.26.51-9.93,4.59-9.93,10.84q0,10.53,0,21.06a5.93,5.93,0,0,1-1.57,4.62,4.92,4.92,0,0,1-5.54,1.09,4.49,4.49,0,0,1-3-4.46C908.93,653.88,908.94,647.74,908.94,641.6Z"/><path class="cls-9" d="M2208.37,641.66c0-6.06,0-12.12,0-18.18a5,5,0,0,1,9.93-1c.49,1.85.93,2,2.23.65,4.78-4.94,10.63-6.4,17.24-5.15a11.76,11.76,0,0,1,9.54,8.9,36.58,36.58,0,0,1,1.36,9.06c.18,7.94.08,15.88,0,23.82a5,5,0,0,1-9.86,1.36,12.39,12.39,0,0,1-.25-2.73c0-7.25,0-14.51,0-21.77a10.63,10.63,0,0,0-2-7c-2.16-2.66-5.15-3.06-8.27-2.76-6.23.62-9.75,4.62-9.76,10.88,0,7,0,14,0,21.06a5.81,5.81,0,0,1-1.69,4.68,4.92,4.92,0,0,1-5.46,1,4.44,4.44,0,0,1-3-4.38C2208.35,654,2208.37,647.81,2208.37,641.66Z"/><path class="cls-9" d="M1098.29,635.72c0-4.19,0-8.37,0-12.56a4.63,4.63,0,0,1,3.27-4.42,5,5,0,0,1,5.56,1.49,6.58,6.58,0,0,1,1.28,4.38c0,7.38-.06,14.76,0,22.14a17.61,17.61,0,0,0,1,5,6.63,6.63,0,0,0,4,4c3.81,1.64,9.28.8,11.76-1.92,2-2.17,2.45-4.89,2.47-7.69,0-7.46,0-14.91,0-22.37a4.85,4.85,0,0,1,3.72-5.07,5,5,0,0,1,6.38,4.64c0,.52,0,1,0,1.56,0,7.06,0,14.12,0,21.18a23.8,23.8,0,0,1-1.54,8.66A16.21,16.21,0,0,1,1124.61,665a26.34,26.34,0,0,1-13.17,0c-6.91-1.76-11-6.35-12.58-13.2a26,26,0,0,1-.57-5.21c-.08-3.63,0-7.26,0-10.89Z"/><path class="cls-9" d="M1189,635.82c0-4.19,0-8.38,0-12.56a4.62,4.62,0,0,1,3.29-4.52,5,5,0,0,1,5.55,1.5,6.62,6.62,0,0,1,1.27,4.39c0,7.34-.06,14.68.05,22a18.43,18.43,0,0,0,1,5.1,6.57,6.57,0,0,0,4,3.94c3.83,1.69,9.36.86,11.87-1.9,2-2.17,2.43-4.89,2.45-7.69,0-7.46,0-14.92,0-22.38a4.87,4.87,0,0,1,3.63-5,5,5,0,0,1,6.48,4.65c.05.95,0,1.91,0,2.87,0,6.62,0,13.24,0,19.86a23.78,23.78,0,0,1-1.59,8.78,16.28,16.28,0,0,1-11.86,10.19,26.6,26.6,0,0,1-12.94,0c-7-1.75-11.09-6.36-12.67-13.25a26,26,0,0,1-.57-5.21c-.08-3.59,0-7.18,0-10.77Z"/><path class="cls-9" d="M1954.15,660.35a19,19,0,0,1,1.67-3.18c3.33-4.19,6.73-8.32,10.14-12.44,1.91-2.31,2-2.41.07-4.73-3.36-4.15-6.77-8.28-10.06-12.49a8.13,8.13,0,0,1-1.68-3.47,4.52,4.52,0,0,1,2.86-5.11,5.07,5.07,0,0,1,6.08,1.45c2.18,2.6,4.28,5.27,6.41,7.9,1.08,1.34,2.13,2.7,3.24,4s1.8,1.36,2.91-.1c2.76-3.62,5.5-7.25,8.27-10.87a13.85,13.85,0,0,1,1.35-1.51,4.58,4.58,0,0,1,6.13-.31,4.32,4.32,0,0,1,1.23,5.77,33.83,33.83,0,0,1-3.1,4.09c-2.79,3.44-5.63,6.85-8.43,10.28-1.09,1.34-1.06,1.67,0,3l10.58,13.15c.28.34.55.69.8,1.05a5.06,5.06,0,0,1-8,6.22c-3-3.71-6-7.45-9-11.18-.2-.25-.4-.5-.62-.73-.92-1-1.51-1-2.36.09-1.63,2-3.23,4.06-4.84,6.1-1.48,1.88-2.94,3.78-4.46,5.63a5.08,5.08,0,0,1-7.79.24A12.18,12.18,0,0,1,1954.15,660.35Z"/><path class="cls-9" d="M1688.91,617.4a24,24,0,0,1,11,2.85,18.25,18.25,0,0,1,4.44,3.57c2.32,2.54,1.63,5.89-1.31,7a4.29,4.29,0,0,1-4.93-1.15c-3.33-3.53-7.52-4.32-12.1-3.58-1.89.3-3.51,1.15-4.09,3.21a4.47,4.47,0,0,0,2.22,5.52c2.22,1,4.61,1.74,6.94,2.58,3.07,1.12,6.25,2,9.18,3.42a10.91,10.91,0,0,1,6.26,8.14,12.83,12.83,0,0,1-6.86,14.24c-5.77,3.13-11.77,3.12-17.93,1.53a19,19,0,0,1-9.39-5.25,13.79,13.79,0,0,1-1.15-1.38c-1.54-2.14-1.38-4.45.41-6a4.49,4.49,0,0,1,6.29.06c1.08,1,2.16,1.91,3.32,2.75a14.64,14.64,0,0,0,12.66,2.31c3.4-.84,5-4.44,3-7.17a9,9,0,0,0-3.65-2.55c-2-.86-4.18-1.36-6.27-2-3.45-1.13-7-2-10-4.17a11.42,11.42,0,0,1-4.88-8.91c-.6-7.86,5-12.09,10.68-13.85A49.18,49.18,0,0,1,1688.91,617.4Z"/><path class="cls-9" d="M1760.63,645.34c0,4.87,0,9.74,0,14.61a4.84,4.84,0,0,1-3.3,4.67,5.21,5.21,0,0,1-5.65-1.6,5.81,5.81,0,0,1-1.17-3.93q0-13.64,0-27.29c0-3.18-.12-3.3-3.31-3.3h-1.68a4.57,4.57,0,0,1-.11-9.13c1.08-.05,2.16,0,3.24-.05,1.31-.06,1.78-.54,1.84-1.86s0-2.64.14-3.94c1-7.42,6.36-12.35,14-12.81a32.45,32.45,0,0,1,5.49.06,9.11,9.11,0,0,1,3.46,1.21,4.48,4.48,0,0,1,.6,7.25c-1.31,1.12-2.83.91-4.34.7-1-.14-2-.4-2.95-.51a5.16,5.16,0,0,0-6,4.19,19.93,19.93,0,0,0-.25,4.16c0,1.15.82,1.55,1.87,1.56,2.2,0,4.41-.05,6.6.06a4.56,4.56,0,0,1,4,6.57,4.22,4.22,0,0,1-4,2.52c-2.08,0-4.16,0-6.24,0-1.74,0-2.2.48-2.21,2.24,0,4.87,0,9.74,0,14.6Z"/><path class="cls-9" d="M2001,642c-.19-6.25,1.38-11.67,5.17-16.34a20.92,20.92,0,0,1,15.18-7.9,29.91,29.91,0,0,1,12.21,1.26,11.16,11.16,0,0,1,5.14,3.17,5.35,5.35,0,0,1,1.19,5.24c-.93,3.08-3.43,3.61-6.11,2.56a6.74,6.74,0,0,1-1.34-.79c-4.46-3.13-9.2-3-13.88-.81s-6.95,6.44-7.38,11.53c-.3,3.5,0,6.94,2,10,2.61,4.14,6.24,6.46,11.26,6.55,3.3,0,6.31-.47,9-2.51a4.85,4.85,0,0,1,6.22.89,4.58,4.58,0,0,1-.66,6.35,14.49,14.49,0,0,1-3.76,2.3,29,29,0,0,1-16,2c-8.44-1.37-13.89-6.39-16.84-14.27A22.79,22.79,0,0,1,2001,642Z"/><path class="cls-9" d="M2283.71,617.67a23.89,23.89,0,0,1,11.84,2.44,7.29,7.29,0,0,1,3.73,4,5.13,5.13,0,0,1-.92,5.07,4.21,4.21,0,0,1-4.75.91,8,8,0,0,1-1.57-.86c-4.6-3.28-9.48-3.2-14.29-.79s-6.91,6.84-7.17,12.15a15.44,15.44,0,0,0,2.1,9.42c2.6,4,6.18,6.32,11.11,6.41,3.28.06,6.31-.4,9.05-2.46a4.85,4.85,0,0,1,6.31.88,4.59,4.59,0,0,1-.72,6.35,15.4,15.4,0,0,1-3.87,2.33,29.41,29.41,0,0,1-15.76,1.92c-7-1-12.36-4.69-15.38-11-4.84-10.08-4.59-20.08,2.47-29.18,3.81-4.92,9.2-7.27,15.42-7.67C2282.1,617.62,2282.91,617.67,2283.71,617.67Z"/><path class="cls-9" d="M1362.71,634.45q0-11.79,0-23.58a13.83,13.83,0,0,1,.16-2.5,5.26,5.26,0,0,1,10.44.93q0,21.06,0,42.13c0,.52,0,1,0,1.56.06,1.5.52,2,2.06,2,2.92,0,5.84,0,8.76,0,4.12,0,8.24,0,12.36,0a4.9,4.9,0,0,1,5.06,4.47,4.81,4.81,0,0,1-4.85,5.35c-2.28.07-4.56,0-6.84,0-7,0-14.07,0-21.11,0-4.08,0-6-1.92-6.06-6,0-8.14,0-16.28,0-24.42Z"/><path class="cls-9" d="M1156.1,642.74c0-4,0-7.9,0-11.84,0-2-.43-2.38-2.41-2.4-.72,0-1.44,0-2.16,0a4.29,4.29,0,0,1-4.33-4.22,4.46,4.46,0,0,1,4-4.87c1-.1,1.92,0,2.88-.07,1.44-.06,1.92-.53,2-2,0-1.28,0-2.55,0-3.83a5,5,0,0,1,4.71-5.11,5,5,0,0,1,5.3,4.47c.18,1.42.09,2.87.13,4.3,0,1.68.49,2.13,2.16,2.16,1.44,0,2.88,0,4.32,0a4.5,4.5,0,0,1,4.54,4.82,4.39,4.39,0,0,1-4.64,4.31c-1.43,0-2.87,0-4.31,0s-2,.5-2.06,2c0,7.26,0,14.52,0,21.78,0,2.92,1.94,4.33,4.81,3.69.39-.09.76-.24,1.15-.32,1.34-.28,2.65-.38,3.66.79a4,4,0,0,1,.85,4.13,5,5,0,0,1-1.59,2.16,11,11,0,0,1-3.4,1.68,15.33,15.33,0,0,1-9.21-.4c-4-1.38-6.3-4.84-6.43-9.44v-.36q0-5.75,0-11.49Z"/><path class="cls-9" d="M2114.83,632.64c0,9.05,0,18.11,0,27.16a5,5,0,0,1-9.73,1.65,13.19,13.19,0,0,1-.38-3.31q0-25.36,0-50.74a14.35,14.35,0,0,1,.24-2.86,5,5,0,0,1,5.47-4,4.64,4.64,0,0,1,4.41,4.9C2114.85,614.52,2114.83,623.58,2114.83,632.64Z"/><path class="cls-9" d="M2140.27,632.7q0,13.51,0,27a4.86,4.86,0,0,1-5.34,5.12,4.79,4.79,0,0,1-4.37-3.36,13.56,13.56,0,0,1-.4-3.42q0-25.32,0-50.63a15.08,15.08,0,0,1,.22-2.85,5,5,0,0,1,5.43-4,4.68,4.68,0,0,1,4.47,5Q2140.29,619.12,2140.27,632.7Z"/><path class="cls-9" d="M651.22,641.69c0-6.07,0-12.13,0-18.2a5,5,0,0,1,9.84-1.34c.54,1.71.89,1.81,2.1.54a15.83,15.83,0,0,1,13-5,5.11,5.11,0,0,1,5.13,5.19c0,3.62-3,5.5-6.73,4.42a13.82,13.82,0,0,0-4.78-.72c-3.08.24-5.13,2.25-6.63,4.79a13.35,13.35,0,0,0-1.77,6.88c0,6.86,0,13.72,0,20.58a6,6,0,0,1-1.33,4.36,5.08,5.08,0,0,1-5.7,1.37,4.68,4.68,0,0,1-3.09-4.66Q651.19,650.77,651.22,641.69Z"/><path class="cls-9" d="M1242.26,641.63c0-6.07,0-12.13,0-18.19a5,5,0,0,1,9.85-1.24c.51,1.63.91,1.74,2,.53a15.87,15.87,0,0,1,12.83-5.07,5.21,5.21,0,0,1,5.27,6.21c-.4,2.86-3.4,4.34-6.63,3.42a14.35,14.35,0,0,0-4.54-.78c-3.23.2-5.4,2.22-7,4.89a13.34,13.34,0,0,0-1.73,6.77c0,6.9,0,13.8,0,20.7a5.81,5.81,0,0,1-1.62,4.59,4.92,4.92,0,0,1-5.56,1,4.46,4.46,0,0,1-2.93-4.4C1242.24,653.91,1242.26,647.77,1242.26,641.63Z"/><path class="cls-9" d="M1633.89,641.75c0-6.1,0-12.2,0-18.31a4.93,4.93,0,0,1,7-4.57,4.84,4.84,0,0,1,2.82,3.21c.59,1.79.91,1.89,2.16.57a15.81,15.81,0,0,1,13-5,5.25,5.25,0,0,1,5.1,4.63c.29,4.07-2.88,6-6.68,5a15.35,15.35,0,0,0-4.55-.77c-3.23.19-5.4,2.21-7,4.89a13.39,13.39,0,0,0-1.74,6.76q0,10.35,0,20.7a5.81,5.81,0,0,1-1.62,4.6,4.93,4.93,0,0,1-5.56,1,4.47,4.47,0,0,1-2.93-4.4C1633.87,654,1633.89,647.86,1633.89,641.75Z"/><path class="cls-9" d="M1840.5,641.68c0-6.06,0-12.12,0-18.19a5,5,0,0,1,9.84-1.34c.54,1.71.89,1.81,2.1.54a15.83,15.83,0,0,1,13-5,5.1,5.1,0,0,1,5.12,5.19c0,3.62-3,5.5-6.73,4.41a14,14,0,0,0-4.78-.71c-3.08.25-5.13,2.25-6.63,4.8a13.29,13.29,0,0,0-1.77,6.87c0,6.86,0,13.72,0,20.59a6.07,6.07,0,0,1-1.33,4.35,5.08,5.08,0,0,1-5.7,1.37,4.68,4.68,0,0,1-3.09-4.67Q1840.47,650.78,1840.5,641.68Z"/><path class="cls-9" d="M896,641.74c0,6.07.06,12.13,0,18.19a5,5,0,0,1-7.67,4.19,4.87,4.87,0,0,1-2.41-4.18c-.06-1.51,0-3,0-4.54V625.23a17.16,17.16,0,0,1,.07-2.15,5,5,0,0,1,5.21-4.61,4.91,4.91,0,0,1,4.84,5.08c0,6.06,0,12.13,0,18.19Z"/><path class="cls-7" d="M610.72,659.1a31.52,31.52,0,0,1-12.46-2.46,32.26,32.26,0,0,1-17.07-16.85,31.43,31.43,0,0,1,0-24.57,32.29,32.29,0,0,1,17.07-16.84,31.52,31.52,0,0,1,12.46-2.46,35.55,35.55,0,0,1,8,.88,27.52,27.52,0,0,1,7.11,2.63,4.8,4.8,0,0,1,2,1.88,5,5,0,0,1,.65,2.42,5.67,5.67,0,0,1-1.4,3.77,4.51,4.51,0,0,1-3.6,1.67A6,6,0,0,1,622,609a6.28,6.28,0,0,1-1.45-.52,24.53,24.53,0,0,0-4.65-1.5,24.8,24.8,0,0,0-5.18-.52,19.66,19.66,0,0,0-10.4,2.85,21.31,21.31,0,0,0-7.46,7.63,21.56,21.56,0,0,0,0,21.11,21.18,21.18,0,0,0,7.46,7.67,19.58,19.58,0,0,0,10.4,2.86,35.56,35.56,0,0,0,5.79-.53,22.71,22.71,0,0,0,5.18-1.4l-.79,2.63v-15l1.49,1.32h-9.74a5.3,5.3,0,0,1-3.82-1.49,5.42,5.42,0,0,1,0-7.55,5.3,5.3,0,0,1,3.82-1.49H627a5,5,0,0,1,3.77,1.54,5.23,5.23,0,0,1,1.5,3.81V649a4.75,4.75,0,0,1-.84,2.9,7.28,7.28,0,0,1-1.88,1.84,38.59,38.59,0,0,1-8.82,3.91A34.69,34.69,0,0,1,610.72,659.1Z"/><path class="cls-7" d="M649,658.22a5,5,0,0,1-3.78-1.54,5.26,5.26,0,0,1-1.49-3.81V616.63a5.28,5.28,0,0,1,1.49-3.82,5.4,5.4,0,0,1,7.55,0,5.28,5.28,0,0,1,1.49,3.82v8.25l-.61-5.88a13.33,13.33,0,0,1,2.5-3.73,14.63,14.63,0,0,1,3.46-2.72,15.74,15.74,0,0,1,4.13-1.63,18.72,18.72,0,0,1,4.38-.52,6.7,6.7,0,0,1,4.44,1.49,4.45,4.45,0,0,1,1.79,3.51,5.19,5.19,0,0,1-1.49,4.17,4.87,4.87,0,0,1-3.24,1.27,7.26,7.26,0,0,1-3-.62,7.68,7.68,0,0,0-3.12-.61,7.58,7.58,0,0,0-3.2.75,8.7,8.7,0,0,0-3,2.32,12.27,12.27,0,0,0-2.2,3.91,16.37,16.37,0,0,0-.83,5.48v20.8a5.26,5.26,0,0,1-1.49,3.81A5,5,0,0,1,649,658.22Z"/><path class="cls-7" d="M729.09,634.79a24.73,24.73,0,0,1-3.2,12.68,23,23,0,0,1-8.6,8.55,25.17,25.17,0,0,1-24.13,0,22.84,22.84,0,0,1-8.6-8.55,26.65,26.65,0,0,1,0-25.36,23.34,23.34,0,0,1,8.6-8.6,23.93,23.93,0,0,1,32.73,8.6A24.73,24.73,0,0,1,729.09,634.79Zm-10.53,0a16,16,0,0,0-1.8-7.77,13.42,13.42,0,0,0-4.83-5.13,13.15,13.15,0,0,0-13.42,0,13.42,13.42,0,0,0-4.83,5.13,16,16,0,0,0-1.8,7.77,15.76,15.76,0,0,0,1.8,7.68,13.42,13.42,0,0,0,4.83,5.13,13.15,13.15,0,0,0,13.42,0,13.42,13.42,0,0,0,4.83-5.13A15.76,15.76,0,0,0,718.56,634.79Z"/><path class="cls-7" d="M785.6,634.79a24.64,24.64,0,0,1-3.21,12.68,22.84,22.84,0,0,1-8.6,8.55,25.17,25.17,0,0,1-24.13,0,23,23,0,0,1-8.6-8.55,26.72,26.72,0,0,1,0-25.36,23.49,23.49,0,0,1,8.6-8.6,25,25,0,0,1,24.13,0,23.34,23.34,0,0,1,8.6,8.6A24.64,24.64,0,0,1,785.6,634.79Zm-10.53,0a16,16,0,0,0-1.8-7.77,13.42,13.42,0,0,0-4.83-5.13,13.15,13.15,0,0,0-13.42,0,13.42,13.42,0,0,0-4.83,5.13,16,16,0,0,0-1.8,7.77,15.76,15.76,0,0,0,1.8,7.68A13.42,13.42,0,0,0,755,647.6a13.15,13.15,0,0,0,13.42,0,13.42,13.42,0,0,0,4.83-5.13A15.76,15.76,0,0,0,775.07,634.79Z"/><path class="cls-7" d="M821.22,610.4q7,0,10.35,3.37a16.65,16.65,0,0,1,4.39,8.74l-1.49-.79.7-1.41a21,21,0,0,1,8.55-8.29,14.93,14.93,0,0,1,7-1.62q6.31,0,9.61,2.72a13.8,13.8,0,0,1,4.52,7.24,38.19,38.19,0,0,1,1.23,10v22.47a5.23,5.23,0,0,1-1.5,3.81,5.38,5.38,0,0,1-7.54,0,5.22,5.22,0,0,1-1.49-3.81V630.4a18.32,18.32,0,0,0-.7-5.22,7.18,7.18,0,0,0-2.55-3.73,8.58,8.58,0,0,0-5.26-1.4,11.06,11.06,0,0,0-5.71,1.4,9.09,9.09,0,0,0-3.55,3.73,11.33,11.33,0,0,0-1.19,5.22v22.47a5.22,5.22,0,0,1-1.49,3.81,5.38,5.38,0,0,1-7.54,0,5.23,5.23,0,0,1-1.5-3.81V630.4a18,18,0,0,0-.7-5.22,7.17,7.17,0,0,0-2.54-3.73,8.61,8.61,0,0,0-5.27-1.4,11,11,0,0,0-5.7,1.4,9.09,9.09,0,0,0-3.55,3.73,11.33,11.33,0,0,0-1.19,5.22v22.47a5.26,5.26,0,0,1-1.49,3.81,5.4,5.4,0,0,1-7.55,0,5.26,5.26,0,0,1-1.49-3.81V616.63a5.28,5.28,0,0,1,1.49-3.82,5.4,5.4,0,0,1,7.55,0,5.28,5.28,0,0,1,1.49,3.82v3.77l-1.31-.26a18.74,18.74,0,0,1,2.19-3.21,19.18,19.18,0,0,1,3.42-3.2,18.36,18.36,0,0,1,4.48-2.41A15,15,0,0,1,821.22,610.4Z"/><path class="cls-7" d="M883.78,605.57a7,7,0,0,1-4.21-1,4.14,4.14,0,0,1-1.23-3.43v-1.66c0-1.7.45-2.86,1.36-3.47a7.58,7.58,0,0,1,4.17-.92c2,0,3.48.32,4.3,1a4.14,4.14,0,0,1,1.23,3.43v1.66c0,1.7-.44,2.86-1.32,3.47A7.73,7.73,0,0,1,883.78,605.57Zm5.35,47.3a5.22,5.22,0,0,1-1.49,3.81,5.38,5.38,0,0,1-7.54,0,5.23,5.23,0,0,1-1.5-3.81V616.63a5.25,5.25,0,0,1,1.5-3.82,5.38,5.38,0,0,1,7.54,0,5.24,5.24,0,0,1,1.49,3.82Z"/><path class="cls-7" d="M926.78,610.4q6.48,0,9.87,2.72a13.81,13.81,0,0,1,4.65,7.24,37.32,37.32,0,0,1,1.27,10v22.47a5.26,5.26,0,0,1-1.49,3.81,5.4,5.4,0,0,1-7.55,0,5.26,5.26,0,0,1-1.49-3.81V630.4a17,17,0,0,0-.75-5.22,7.22,7.22,0,0,0-2.67-3.73,9.35,9.35,0,0,0-5.53-1.4,11.66,11.66,0,0,0-5.92,1.4,9.65,9.65,0,0,0-3.69,3.73,10.67,10.67,0,0,0-1.27,5.22v22.47a5.26,5.26,0,0,1-1.49,3.81,5.4,5.4,0,0,1-7.55,0,5.26,5.26,0,0,1-1.49-3.81V616.63a5.28,5.28,0,0,1,1.49-3.82,5.4,5.4,0,0,1,7.55,0,5.28,5.28,0,0,1,1.49,3.82v3.77l-1.32-.26a17.16,17.16,0,0,1,2.29-3.21,22.13,22.13,0,0,1,3.5-3.2,17.9,17.9,0,0,1,4.57-2.41A16,16,0,0,1,926.78,610.4Z"/><path class="cls-7" d="M975.21,610.4a19.3,19.3,0,0,1,6.76,1.14,19.8,19.8,0,0,1,5.31,2.89,17.49,17.49,0,0,1,3.51,3.56,5.72,5.72,0,0,1,1.27,3l-2.28,1.14v-6.4a5.26,5.26,0,0,1,1.49-3.82,5.46,5.46,0,0,1,7.54,0,5.2,5.2,0,0,1,1.5,3.86v39q0,7.62-3.3,12.24a18.62,18.62,0,0,1-8.64,6.67,31.8,31.8,0,0,1-11.49,2.06,31.43,31.43,0,0,1-4.57-.44c-1.87-.29-3.65-.65-5.35-1.05a28.43,28.43,0,0,1-3.86-1.15,7.49,7.49,0,0,1-3.64-2.85,4.3,4.3,0,0,1-.39-3.64,5.44,5.44,0,0,1,2.54-3.46,4.36,4.36,0,0,1,3.69-.22c.58.17,1.55.52,2.89,1a43.5,43.5,0,0,0,4.43,1.45,16.42,16.42,0,0,0,4.26.66q6.57,0,9.74-2.64a9,9,0,0,0,3.16-7.28v-7.63l1.05.79a5,5,0,0,1-1.19,2.76,16.13,16.13,0,0,1-3.24,3.2,19.68,19.68,0,0,1-4.87,2.68,16.27,16.27,0,0,1-6,1.1A20.78,20.78,0,0,1,964.33,656a22,22,0,0,1-7.9-8.6,29.06,29.06,0,0,1,0-25.27,22.35,22.35,0,0,1,7.81-8.6A20.12,20.12,0,0,1,975.21,610.4Zm1.67,9.65A12.43,12.43,0,0,0,970,622a13.12,13.12,0,0,0-4.65,5.26,16.56,16.56,0,0,0-1.67,7.55,16.33,16.33,0,0,0,1.67,7.46,13.06,13.06,0,0,0,4.65,5.26,12.43,12.43,0,0,0,6.93,1.93,12.61,12.61,0,0,0,7-1.93,13.06,13.06,0,0,0,4.65-5.26,16.46,16.46,0,0,0,1.67-7.46,16.69,16.69,0,0,0-1.67-7.55A13.12,13.12,0,0,0,983.9,622,12.61,12.61,0,0,0,976.88,620.05Z"/><path class="cls-7" d="M1046.19,658.22a5.4,5.4,0,0,1-4-1.54,5.17,5.17,0,0,1-1.53-3.81V602.15a5.23,5.23,0,0,1,5.35-5.35h28.52a5.34,5.34,0,0,1,3.81,1.44,4.89,4.89,0,0,1,1.54,3.73,4.65,4.65,0,0,1-1.54,3.43,5.26,5.26,0,0,1-3.81,1.49h-23.69l.79-1.06v17.64l-.62-1.14h19.57a5.35,5.35,0,0,1,3.82,1.45,4.9,4.9,0,0,1,1.53,3.73,4.67,4.67,0,0,1-1.53,3.42,5.3,5.3,0,0,1-3.82,1.49h-19.74l.79-.79v21.24a5,5,0,0,1-1.63,3.81A5.34,5.34,0,0,1,1046.19,658.22Z"/><path class="cls-7" d="M1125.69,611.27a5.08,5.08,0,0,1,3.78,1.54,5.28,5.28,0,0,1,1.49,3.82v22.28q0,9.32-5.18,14.75t-14.92,5.44q-9.73,0-14.87-5.44t-5.13-14.75V616.63a5.24,5.24,0,0,1,1.49-3.82,5.38,5.38,0,0,1,7.54,0,5.25,5.25,0,0,1,1.5,3.82v22.28q0,5.36,2.37,7.94c1.58,1.73,3.94,2.59,7.1,2.59s5.62-.86,7.2-2.59,2.37-4.37,2.37-7.94V616.63a5.24,5.24,0,0,1,1.49-3.82A5,5,0,0,1,1125.69,611.27Z"/><path class="cls-7" d="M1144.64,612.15h20.8a4.8,4.8,0,0,1,4.91,4.92,4.48,4.48,0,0,1-1.4,3.37,4.84,4.84,0,0,1-3.51,1.36h-20.8a4.79,4.79,0,0,1-4.91-4.91,4.53,4.53,0,0,1,1.4-3.38A4.88,4.88,0,0,1,1144.64,612.15Zm9.39-11a4.91,4.91,0,0,1,3.73,1.54,5.33,5.33,0,0,1,1.45,3.82v39a3.85,3.85,0,0,0,.48,2,2.71,2.71,0,0,0,1.32,1.14,4.45,4.45,0,0,0,1.8.35,4.72,4.72,0,0,0,1.93-.39,4.76,4.76,0,0,1,2-.4,3,3,0,0,1,2.23,1.14,4.58,4.58,0,0,1,1,3.16,4.64,4.64,0,0,1-2.67,4,11.16,11.16,0,0,1-5.75,1.58,29.38,29.38,0,0,1-4.08-.31,10.9,10.9,0,0,1-4.21-1.49,9,9,0,0,1-3.29-3.64,14.41,14.41,0,0,1-1.32-6.76V606.54a5.26,5.26,0,0,1,5.35-5.36Z"/><path class="cls-7" d="M1216.6,611.27a5.06,5.06,0,0,1,3.77,1.54,5.28,5.28,0,0,1,1.49,3.82v22.28q0,9.32-5.18,14.75t-14.91,5.44q-9.75,0-14.88-5.44t-5.13-14.75V616.63a5.28,5.28,0,0,1,1.49-3.82,5.4,5.4,0,0,1,7.55,0,5.28,5.28,0,0,1,1.49,3.82v22.28q0,5.36,2.37,7.94t7.11,2.59q4.82,0,7.19-2.59t2.37-7.94V616.63a5.28,5.28,0,0,1,1.49-3.82A5.06,5.06,0,0,1,1216.6,611.27Z"/><path class="cls-7" d="M1240.28,658.22a5,5,0,0,1-3.77-1.54,5.26,5.26,0,0,1-1.49-3.81V616.63a5.28,5.28,0,0,1,1.49-3.82,5.4,5.4,0,0,1,7.55,0,5.28,5.28,0,0,1,1.49,3.82v8.25l-.61-5.88a13.33,13.33,0,0,1,2.5-3.73,14.44,14.44,0,0,1,3.46-2.72,15.74,15.74,0,0,1,4.13-1.63,18.72,18.72,0,0,1,4.38-.52,6.67,6.67,0,0,1,4.43,1.49,4.43,4.43,0,0,1,1.8,3.51,5.19,5.19,0,0,1-1.49,4.17,4.89,4.89,0,0,1-3.25,1.27,7.22,7.22,0,0,1-3-.62,7.68,7.68,0,0,0-3.12-.61,7.58,7.58,0,0,0-3.2.75,8.7,8.7,0,0,0-3,2.32,12.27,12.27,0,0,0-2.2,3.91,16.37,16.37,0,0,0-.83,5.48v20.8a5.26,5.26,0,0,1-1.49,3.81A5,5,0,0,1,1240.28,658.22Z"/><path class="cls-7" d="M1297,659.1A25.72,25.72,0,0,1,1284,656a21.52,21.52,0,0,1-8.43-8.47,24.7,24.7,0,0,1-2.94-12.11,26.53,26.53,0,0,1,3.21-13.46,22.58,22.58,0,0,1,8.37-8.56,21.65,21.65,0,0,1,11-3,19.92,19.92,0,0,1,8.47,1.84,23.16,23.16,0,0,1,7.06,5,24.55,24.55,0,0,1,4.87,7.42,22.54,22.54,0,0,1,1.8,8.95,4.52,4.52,0,0,1-1.66,3.42,5.61,5.61,0,0,1-3.69,1.32h-33.52l-2.63-8.78h32.2l-1.93,1.76V629a8,8,0,0,0-1.8-4.56,11.75,11.75,0,0,0-4-3.21,11.5,11.5,0,0,0-5.14-1.18,16.56,16.56,0,0,0-4.91.7,9.45,9.45,0,0,0-4,2.37,11.45,11.45,0,0,0-2.63,4.47,22.06,22.06,0,0,0-1,7.11,15.3,15.3,0,0,0,2,8,13.49,13.49,0,0,0,11.71,6.71,20.55,20.55,0,0,0,5.18-.52,11.56,11.56,0,0,0,3.11-1.28c.79-.49,1.51-.92,2.15-1.27a6.82,6.82,0,0,1,3-.79,4.42,4.42,0,0,1,4.47,4.39,5.49,5.49,0,0,1-2.45,4.3,20.51,20.51,0,0,1-6.41,3.38A25.66,25.66,0,0,1,1297,659.1Z"/><path class="cls-7" d="M1389.45,648a5.35,5.35,0,0,1,3.82,1.45,4.9,4.9,0,0,1,1.53,3.73,4.81,4.81,0,0,1-1.53,3.64,5.35,5.35,0,0,1-3.82,1.45h-28.52a5.26,5.26,0,0,1-5.35-5.35V602.15a5.14,5.14,0,0,1,1.58-3.82,5.56,5.56,0,0,1,4-1.53,5.3,5.3,0,0,1,3.73,1.53,5.06,5.06,0,0,1,1.62,3.82v47.29l-1.93-1.49Z"/><path class="cls-7" d="M1427.88,659.1a25.75,25.75,0,0,1-12.94-3.12,21.5,21.5,0,0,1-8.42-8.47,24.7,24.7,0,0,1-2.94-12.11,26.53,26.53,0,0,1,3.2-13.46,22.68,22.68,0,0,1,8.38-8.56,21.62,21.62,0,0,1,11-3,20,20,0,0,1,8.47,1.84,23.28,23.28,0,0,1,7.06,5,24.55,24.55,0,0,1,4.87,7.42,22.54,22.54,0,0,1,1.8,8.95,4.53,4.53,0,0,1-1.67,3.42,5.57,5.57,0,0,1-3.69,1.32h-33.51l-2.64-8.78H1439l-1.93,1.76V629a8,8,0,0,0-1.8-4.56,11.79,11.79,0,0,0-4-3.21,11.49,11.49,0,0,0-5.13-1.18,16.58,16.58,0,0,0-4.92.7,9.42,9.42,0,0,0-3.94,2.37,11.46,11.46,0,0,0-2.64,4.47,22.37,22.37,0,0,0-1,7.11,15.39,15.39,0,0,0,2,8,13.49,13.49,0,0,0,11.72,6.71,20.41,20.41,0,0,0,5.17-.52,11.51,11.51,0,0,0,3.12-1.28c.79-.49,1.5-.92,2.15-1.27a6.78,6.78,0,0,1,3-.79,4.24,4.24,0,0,1,3.2,1.32,4.28,4.28,0,0,1,1.28,3.07,5.48,5.48,0,0,1-2.46,4.3,20.4,20.4,0,0,1-6.41,3.38A25.62,25.62,0,0,1,1427.88,659.1Z"/><path class="cls-7" d="M1497.73,610.4a5.08,5.08,0,0,1,3.77,1.49,5.19,5.19,0,0,1,1.49,3.86v37.12a5.22,5.22,0,0,1-1.49,3.81,5.38,5.38,0,0,1-7.54,0,5.23,5.23,0,0,1-1.5-3.81v-4.3l1.93.79a5,5,0,0,1-1.22,2.76,16.87,16.87,0,0,1-3.34,3.2,20.14,20.14,0,0,1-5,2.68,17.09,17.09,0,0,1-6.18,1.1,20,20,0,0,1-11-3.12,21.88,21.88,0,0,1-7.77-8.6,29.43,29.43,0,0,1,0-25.27,22.2,22.2,0,0,1,7.68-8.6,19.4,19.4,0,0,1,10.71-3.11,20.31,20.31,0,0,1,6.93,1.14,20.75,20.75,0,0,1,5.48,2.89,16.65,16.65,0,0,1,3.6,3.56,5.64,5.64,0,0,1,1.27,3l-3.16,1.14v-6.4a5.27,5.27,0,0,1,1.5-3.82A5,5,0,0,1,1497.73,610.4Zm-17.73,39a11.87,11.87,0,0,0,6.76-1.93,13,13,0,0,0,4.52-5.26,16.84,16.84,0,0,0,1.62-7.46,17.08,17.08,0,0,0-1.62-7.55,13,13,0,0,0-4.52-5.26,11.87,11.87,0,0,0-6.76-1.93,11.68,11.68,0,0,0-6.66,1.93,13,13,0,0,0-4.52,5.26,17,17,0,0,0-1.63,7.55,16.71,16.71,0,0,0,1.63,7.46,12.91,12.91,0,0,0,4.52,5.26A11.68,11.68,0,0,0,1480,649.44Z"/><path class="cls-7" d="M1554.59,593.29a5.09,5.09,0,0,1,3.77,1.49,5.23,5.23,0,0,1,1.49,3.86v54.23a5.26,5.26,0,0,1-1.49,3.81,5.4,5.4,0,0,1-7.55,0,5.26,5.26,0,0,1-1.49-3.81v-4.3l1.93.79a4.92,4.92,0,0,1-1.23,2.76,16.8,16.8,0,0,1-3.33,3.2,20.14,20.14,0,0,1-5,2.68,17.09,17.09,0,0,1-6.18,1.1,20,20,0,0,1-11-3.12,21.88,21.88,0,0,1-7.77-8.6,29.43,29.43,0,0,1,0-25.27,22.2,22.2,0,0,1,7.68-8.6,19.37,19.37,0,0,1,10.7-3.11,20.33,20.33,0,0,1,6.94,1.14,20.75,20.75,0,0,1,5.48,2.89,16.65,16.65,0,0,1,3.6,3.56,5.64,5.64,0,0,1,1.27,3l-3.16,1.14V598.64a5.3,5.3,0,0,1,1.49-3.82A5.06,5.06,0,0,1,1554.59,593.29Zm-17.73,56.15a11.89,11.89,0,0,0,6.76-1.93,13.06,13.06,0,0,0,4.52-5.26,16.84,16.84,0,0,0,1.62-7.46,17.08,17.08,0,0,0-1.62-7.55,13.13,13.13,0,0,0-4.52-5.26,11.89,11.89,0,0,0-6.76-1.93,11.73,11.73,0,0,0-6.67,1.93,13.13,13.13,0,0,0-4.52,5.26,17.08,17.08,0,0,0-1.62,7.55,16.84,16.84,0,0,0,1.62,7.46,13.06,13.06,0,0,0,4.52,5.26A11.73,11.73,0,0,0,1536.86,649.44Z"/><path class="cls-7" d="M1595.12,659.1a25.75,25.75,0,0,1-12.94-3.12,21.56,21.56,0,0,1-8.42-8.47,24.7,24.7,0,0,1-2.94-12.11,26.63,26.63,0,0,1,3.2-13.46,22.68,22.68,0,0,1,8.38-8.56,21.62,21.62,0,0,1,11-3,20,20,0,0,1,8.47,1.84,23.28,23.28,0,0,1,7.06,5,24.55,24.55,0,0,1,4.87,7.42,22.54,22.54,0,0,1,1.8,8.95,4.53,4.53,0,0,1-1.67,3.42,5.56,5.56,0,0,1-3.68,1.32H1576.7l-2.63-8.78h32.2l-1.93,1.76V629a8,8,0,0,0-1.8-4.56,11.7,11.7,0,0,0-4-3.21,11.49,11.49,0,0,0-5.13-1.18,16.51,16.51,0,0,0-4.91.7,9.39,9.39,0,0,0-4,2.37,11.46,11.46,0,0,0-2.64,4.47,22.37,22.37,0,0,0-1,7.11,15.39,15.39,0,0,0,2,8,13.49,13.49,0,0,0,11.72,6.71,20.41,20.41,0,0,0,5.17-.52,11.51,11.51,0,0,0,3.12-1.28c.79-.49,1.5-.92,2.15-1.27a6.78,6.78,0,0,1,3-.79,4.42,4.42,0,0,1,4.48,4.39,5.48,5.48,0,0,1-2.46,4.3,20.45,20.45,0,0,1-6.4,3.38A25.68,25.68,0,0,1,1595.12,659.1Z"/><path class="cls-7" d="M1631.8,658.22a5,5,0,0,1-3.77-1.54,5.22,5.22,0,0,1-1.49-3.81V616.63a5.24,5.24,0,0,1,1.49-3.82,5.38,5.38,0,0,1,7.54,0,5.25,5.25,0,0,1,1.5,3.82v8.25l-.62-5.88a13.78,13.78,0,0,1,2.5-3.73,14.69,14.69,0,0,1,3.47-2.72,15.67,15.67,0,0,1,4.12-1.63,18.81,18.81,0,0,1,4.39-.52,6.69,6.69,0,0,1,4.43,1.49,4.43,4.43,0,0,1,1.8,3.51,5.23,5.23,0,0,1-1.49,4.17,4.91,4.91,0,0,1-3.25,1.27,7.29,7.29,0,0,1-3-.62,7.67,7.67,0,0,0-6.31.14,8.73,8.73,0,0,0-3,2.32,12.45,12.45,0,0,0-2.19,3.91,16.12,16.12,0,0,0-.83,5.48v20.8a5.23,5.23,0,0,1-1.5,3.81A5,5,0,0,1,1631.8,658.22Z"/><path class="cls-7" d="M1663.65,650.93a4.9,4.9,0,0,1-.79-3.15,4.25,4.25,0,0,1,2.28-3.34,4.78,4.78,0,0,1,3-.74,5,5,0,0,1,3.07,1.62,20.63,20.63,0,0,0,5.35,3.95,15.7,15.7,0,0,0,7,1.4,24.83,24.83,0,0,0,2.9-.39,5.54,5.54,0,0,0,2.76-1.41,4.37,4.37,0,0,0,1.18-3.37,3.89,3.89,0,0,0-1.31-3.08,11.26,11.26,0,0,0-3.47-1.93c-1.43-.52-3-1-4.78-1.49s-3.67-1.11-5.57-1.75a23.74,23.74,0,0,1-5.22-2.5,12.08,12.08,0,0,1-3.86-4.08,12.46,12.46,0,0,1-1.5-6.41,11.57,11.57,0,0,1,2.46-7.46,16.14,16.14,0,0,1,6.36-4.74,20.74,20.74,0,0,1,8.21-1.66,27,27,0,0,1,5.7.65,22.49,22.49,0,0,1,5.7,2.11,14.13,14.13,0,0,1,4.57,3.82,6.26,6.26,0,0,1,1.14,3.16,3.78,3.78,0,0,1-1.67,3.33,4.23,4.23,0,0,1-3.07.92,4.67,4.67,0,0,1-2.9-1.18,10.27,10.27,0,0,0-4-3.07,13.72,13.72,0,0,0-5.75-1.14,15,15,0,0,0-2.85.3,5.7,5.7,0,0,0-2.67,1.32,4.8,4.8,0,0,0,.17,6.4,10,10,0,0,0,3.56,1.94q2.24.74,4.78,1.44c1.75.47,3.54,1,5.35,1.67a21.19,21.19,0,0,1,5,2.54,12.27,12.27,0,0,1,3.69,4.08,13,13,0,0,1,1.4,6.37,11.56,11.56,0,0,1-2.63,7.63,16.65,16.65,0,0,1-6.58,4.78,21.12,21.12,0,0,1-8.08,1.63,31.33,31.33,0,0,1-10.35-1.8A17.9,17.9,0,0,1,1663.65,650.93Z"/><path class="cls-7" d="M1761.84,612.15a4.88,4.88,0,0,1,3.51,1.36,5,5,0,0,1,0,6.93,4.84,4.84,0,0,1-3.51,1.36h-23.25a4.81,4.81,0,0,1-3.51-1.36,5,5,0,0,1,0-6.93,4.85,4.85,0,0,1,3.51-1.36Zm-1-18.86a13.74,13.74,0,0,1,3.78.52,7.21,7.21,0,0,1,3.07,1.71,4.13,4.13,0,0,1,1.23,3.12,4.66,4.66,0,0,1-1.28,3.46,4,4,0,0,1-2.94,1.28,10.6,10.6,0,0,1-2.37-.4,12.73,12.73,0,0,0-3.07-.39,5.2,5.2,0,0,0-3.37,1,5,5,0,0,0-1.63,2.24,7.06,7.06,0,0,0-.44,2.24v44.84a5.22,5.22,0,0,1-1.49,3.81,5.38,5.38,0,0,1-7.54,0,5.23,5.23,0,0,1-1.5-3.81V608.12a14.18,14.18,0,0,1,4.39-10.53Q1752.11,593.29,1760.87,593.29Z"/><path class="cls-7" d="M1822.38,634.79a24.73,24.73,0,0,1-3.2,12.68,22.91,22.91,0,0,1-8.6,8.55,25.17,25.17,0,0,1-24.13,0,22.91,22.91,0,0,1-8.6-8.55,26.72,26.72,0,0,1,0-25.36,23.41,23.41,0,0,1,8.6-8.6,25,25,0,0,1,24.13,0,23.41,23.41,0,0,1,8.6,8.6A24.73,24.73,0,0,1,1822.38,634.79Zm-10.53,0a16,16,0,0,0-1.8-7.77,13.39,13.39,0,0,0-4.82-5.13,13.17,13.17,0,0,0-13.43,0A13.39,13.39,0,0,0,1787,627a16,16,0,0,0-1.8,7.77,15.76,15.76,0,0,0,1.8,7.68,13.39,13.39,0,0,0,4.82,5.13,13.17,13.17,0,0,0,13.43,0,13.39,13.39,0,0,0,4.82-5.13A15.76,15.76,0,0,0,1811.85,634.79Z"/><path class="cls-7" d="M1838.61,658.22a5,5,0,0,1-3.77-1.54,5.26,5.26,0,0,1-1.49-3.81V616.63a5.28,5.28,0,0,1,1.49-3.82,5.4,5.4,0,0,1,7.55,0,5.28,5.28,0,0,1,1.49,3.82v8.25l-.61-5.88a13.33,13.33,0,0,1,2.5-3.73,14.44,14.44,0,0,1,3.46-2.72,15.74,15.74,0,0,1,4.13-1.63,18.72,18.72,0,0,1,4.38-.52,6.67,6.67,0,0,1,4.43,1.49,4.43,4.43,0,0,1,1.8,3.51,5.19,5.19,0,0,1-1.49,4.17,4.89,4.89,0,0,1-3.25,1.27,7.22,7.22,0,0,1-3-.62,7.68,7.68,0,0,0-3.12-.61,7.58,7.58,0,0,0-3.2.75,8.7,8.7,0,0,0-3,2.32,12.27,12.27,0,0,0-2.2,3.91,16.37,16.37,0,0,0-.83,5.48v20.8a5.26,5.26,0,0,1-1.49,3.81A5,5,0,0,1,1838.61,658.22Z"/><path class="cls-7" d="M1905.74,596.8h29.39a5.37,5.37,0,0,1,3.82,1.44,4.92,4.92,0,0,1,1.54,3.73,4.54,4.54,0,0,1-1.54,3.56,5.58,5.58,0,0,1-3.82,1.36h-24.57l.79-1.49v17.11l-.7-.71h20.53a5.36,5.36,0,0,1,3.82,1.45,4.92,4.92,0,0,1,1.54,3.73,4.52,4.52,0,0,1-1.54,3.55,5.52,5.52,0,0,1-3.82,1.36h-20.26l.43-.7v17.73l-.7-.79h24.48a5.19,5.19,0,0,1,3.82,1.53,4.91,4.91,0,0,1,1.54,3.56,4.65,4.65,0,0,1-1.54,3.59,5.43,5.43,0,0,1-3.82,1.41h-29.39a5.24,5.24,0,0,1-5.35-5.35V602.15a5.23,5.23,0,0,1,5.35-5.35Z"/><path class="cls-7" d="M1952.42,611.27a5.34,5.34,0,0,1,4.3,2.2L1986,649.88a5,5,0,0,1,1.14,3.16,5,5,0,0,1-1.67,3.77,5.15,5.15,0,0,1-8-.7l-29.3-36.41a5.08,5.08,0,0,1,.48-6.93A5.32,5.32,0,0,1,1952.42,611.27Zm.09,47A5.59,5.59,0,0,1,1949,657a4.09,4.09,0,0,1-1.71-3.29,5.14,5.14,0,0,1,1.32-3.34l13.42-16.41,5.27,8.78-10.62,13.42A5.08,5.08,0,0,1,1952.51,658.31Zm29.22-47a4.86,4.86,0,0,1,3.55,1.45,4.56,4.56,0,0,1,1.45,3.29,6,6,0,0,1-.27,1.76,4.28,4.28,0,0,1-1,1.66l-13.25,16.15-5.53-7.63,10.79-14.31A5.14,5.14,0,0,1,1981.73,611.27Z"/><path class="cls-7" d="M2016.82,610.4a32.32,32.32,0,0,1,8.73,1.05,14.16,14.16,0,0,1,5.8,2.94,5.93,5.93,0,0,1,2.06,4.52,5.65,5.65,0,0,1-1.06,3.29,3.48,3.48,0,0,1-3.07,1.53,5.54,5.54,0,0,1-4-1.4,8.94,8.94,0,0,0-1.66-1.14,8,8,0,0,0-2.68-.83,17,17,0,0,0-2.68-.31,14.13,14.13,0,0,0-7.59,1.93,12.94,12.94,0,0,0-4.78,5.22,16.57,16.57,0,0,0-1.66,7.59,16,16,0,0,0,1.71,7.5,13.34,13.34,0,0,0,4.73,5.22,12.69,12.69,0,0,0,7,1.93,22.81,22.81,0,0,0,3.77-.26,9.61,9.61,0,0,0,2.64-.79,16.41,16.41,0,0,0,2.19-1.49,4.48,4.48,0,0,1,2.9-.79,4.34,4.34,0,0,1,3.51,1.45,5.33,5.33,0,0,1,1.22,3.55q0,2.19-2.45,4A19.72,19.72,0,0,1,2025,658a32.6,32.6,0,0,1-8.64,1.1,22.09,22.09,0,0,1-12-3.21,21.34,21.34,0,0,1-7.85-8.73,27.29,27.29,0,0,1-2.76-12.37,26.32,26.32,0,0,1,2.94-12.68,21.8,21.8,0,0,1,8.16-8.6A23,23,0,0,1,2016.82,610.4Z"/><path class="cls-7" d="M2065.43,659.1a25.75,25.75,0,0,1-12.94-3.12,21.56,21.56,0,0,1-8.42-8.47,24.7,24.7,0,0,1-2.94-12.11,26.53,26.53,0,0,1,3.2-13.46,22.68,22.68,0,0,1,8.38-8.56,21.62,21.62,0,0,1,11-3,20,20,0,0,1,8.47,1.84,23.28,23.28,0,0,1,7.06,5,24.55,24.55,0,0,1,4.87,7.42,22.54,22.54,0,0,1,1.8,8.95,4.53,4.53,0,0,1-1.67,3.42,5.56,5.56,0,0,1-3.68,1.32H2047l-2.63-8.78h32.2l-1.93,1.76V629a8,8,0,0,0-1.8-4.56,11.79,11.79,0,0,0-4-3.21,11.49,11.49,0,0,0-5.13-1.18,16.62,16.62,0,0,0-4.92.7,9.42,9.42,0,0,0-3.94,2.37,11.46,11.46,0,0,0-2.64,4.47,22.37,22.37,0,0,0-1,7.11,15.39,15.39,0,0,0,2,8,13.49,13.49,0,0,0,11.72,6.71,20.41,20.41,0,0,0,5.17-.52,11.51,11.51,0,0,0,3.12-1.28c.79-.49,1.5-.92,2.15-1.27a6.78,6.78,0,0,1,3-.79,4.42,4.42,0,0,1,4.48,4.39,5.48,5.48,0,0,1-2.46,4.3,20.4,20.4,0,0,1-6.41,3.38A25.62,25.62,0,0,1,2065.43,659.1Z"/><path class="cls-7" d="M2108.25,652.87a5.24,5.24,0,0,1-5.35,5.35,4.9,4.9,0,0,1-3.68-1.54,5.23,5.23,0,0,1-1.5-3.81V598.64a5.24,5.24,0,0,1,5.36-5.35,4.92,4.92,0,0,1,3.73,1.53,5.38,5.38,0,0,1,1.44,3.82Z"/><path class="cls-7" d="M2133.7,652.87a5.26,5.26,0,0,1-5.35,5.35,4.91,4.91,0,0,1-3.69-1.54,5.26,5.26,0,0,1-1.49-3.81V598.64a5.23,5.23,0,0,1,5.35-5.35,4.9,4.9,0,0,1,3.73,1.53,5.35,5.35,0,0,1,1.45,3.82Z"/><path class="cls-7" d="M2169.85,659.1a25.72,25.72,0,0,1-12.94-3.12,21.52,21.52,0,0,1-8.43-8.47,24.7,24.7,0,0,1-2.94-12.11,26.53,26.53,0,0,1,3.21-13.46,22.58,22.58,0,0,1,8.37-8.56,21.65,21.65,0,0,1,11-3,19.92,19.92,0,0,1,8.47,1.84,23.16,23.16,0,0,1,7.06,5,24.55,24.55,0,0,1,4.87,7.42,22.54,22.54,0,0,1,1.8,8.95,4.52,4.52,0,0,1-1.66,3.42,5.61,5.61,0,0,1-3.69,1.32h-33.52l-2.63-8.78H2181l-1.93,1.76V629a8,8,0,0,0-1.8-4.56,11.75,11.75,0,0,0-4-3.21,11.5,11.5,0,0,0-5.14-1.18,16.56,16.56,0,0,0-4.91.7,9.45,9.45,0,0,0-3.95,2.37,11.45,11.45,0,0,0-2.63,4.47,22.06,22.06,0,0,0-1,7.11,15.3,15.3,0,0,0,2,8,13.49,13.49,0,0,0,11.71,6.71,20.55,20.55,0,0,0,5.18-.52,11.56,11.56,0,0,0,3.11-1.28c.79-.49,1.51-.92,2.15-1.27a6.82,6.82,0,0,1,3-.79,4.42,4.42,0,0,1,4.47,4.39,5.48,5.48,0,0,1-2.46,4.3,20.34,20.34,0,0,1-6.4,3.38A25.66,25.66,0,0,1,2169.85,659.1Z"/><path class="cls-7" d="M2226.36,610.4q6.48,0,9.87,2.72a13.81,13.81,0,0,1,4.65,7.24,37.32,37.32,0,0,1,1.27,10v22.47a5.26,5.26,0,0,1-1.49,3.81,5.4,5.4,0,0,1-7.55,0,5.26,5.26,0,0,1-1.49-3.81V630.4a17,17,0,0,0-.75-5.22,7.22,7.22,0,0,0-2.67-3.73,9.35,9.35,0,0,0-5.53-1.4,11.66,11.66,0,0,0-5.92,1.4,9.65,9.65,0,0,0-3.69,3.73,10.67,10.67,0,0,0-1.27,5.22v22.47a5.26,5.26,0,0,1-1.49,3.81,5.4,5.4,0,0,1-7.55,0,5.26,5.26,0,0,1-1.49-3.81V616.63a5.28,5.28,0,0,1,1.49-3.82,5.4,5.4,0,0,1,7.55,0,5.28,5.28,0,0,1,1.49,3.82v3.77l-1.32-.26a17.16,17.16,0,0,1,2.29-3.21,22.13,22.13,0,0,1,3.5-3.2,17.9,17.9,0,0,1,4.57-2.41A16,16,0,0,1,2226.36,610.4Z"/><path class="cls-7" d="M2276.19,610.4a32.45,32.45,0,0,1,8.74,1.05,14.18,14.18,0,0,1,5.79,2.94,5.93,5.93,0,0,1,2.06,4.52,5.71,5.71,0,0,1-1.05,3.29,3.51,3.51,0,0,1-3.08,1.53,6,6,0,0,1-2.32-.39,5.92,5.92,0,0,1-1.62-1,9.39,9.39,0,0,0-1.67-1.14,8,8,0,0,0-2.68-.83,17,17,0,0,0-2.67-.31,14.08,14.08,0,0,0-7.59,1.93,13,13,0,0,0-4.79,5.22,16.57,16.57,0,0,0-1.66,7.59,16,16,0,0,0,1.71,7.5,13.29,13.29,0,0,0,4.74,5.22,12.63,12.63,0,0,0,7,1.93,23,23,0,0,0,3.78-.26,9.53,9.53,0,0,0,2.63-.79,16.41,16.41,0,0,0,2.19-1.49,4.48,4.48,0,0,1,2.9-.79,4.34,4.34,0,0,1,3.51,1.45,5.34,5.34,0,0,1,1.23,3.55c0,1.46-.83,2.79-2.46,4a19.72,19.72,0,0,1-6.45,2.9,32.55,32.55,0,0,1-8.64,1.1,22.09,22.09,0,0,1-12-3.21,21.34,21.34,0,0,1-7.85-8.73,27.29,27.29,0,0,1-2.76-12.37,26.43,26.43,0,0,1,2.94-12.68,21.87,21.87,0,0,1,8.16-8.6A23,23,0,0,1,2276.19,610.4Z"/><path class="cls-7" d="M2324.81,659.1a25.76,25.76,0,0,1-12.95-3.12,21.56,21.56,0,0,1-8.42-8.47,24.7,24.7,0,0,1-2.94-12.11,26.63,26.63,0,0,1,3.2-13.46,22.68,22.68,0,0,1,8.38-8.56,21.62,21.62,0,0,1,11-3,20,20,0,0,1,8.47,1.84,23.28,23.28,0,0,1,7.06,5,24.55,24.55,0,0,1,4.87,7.42,22.54,22.54,0,0,1,1.8,8.95,4.5,4.5,0,0,1-1.67,3.42,5.56,5.56,0,0,1-3.68,1.32h-33.52l-2.63-8.78H2336l-1.93,1.76V629a8,8,0,0,0-1.8-4.56,11.7,11.7,0,0,0-4-3.21,11.49,11.49,0,0,0-5.13-1.18,16.56,16.56,0,0,0-4.91.7,9.39,9.39,0,0,0-3.95,2.37,11.45,11.45,0,0,0-2.63,4.47,22.06,22.06,0,0,0-1,7.11,15.39,15.39,0,0,0,2,8,13.49,13.49,0,0,0,11.72,6.71,20.55,20.55,0,0,0,5.18-.52,11.56,11.56,0,0,0,3.11-1.28c.79-.49,1.51-.92,2.15-1.27a6.78,6.78,0,0,1,3-.79,4.42,4.42,0,0,1,4.48,4.39,5.48,5.48,0,0,1-2.46,4.3,20.45,20.45,0,0,1-6.4,3.38A25.66,25.66,0,0,1,2324.81,659.1Z"/></g></g></svg>