<svg xmlns="http://www.w3.org/2000/svg" viewBox="0 0 2356.44 719.31"><defs><style>.cls-1{fill:#ed1c24;}.cls-2{fill:#f7ec13;}.cls-3{fill:#171144;}.cls-4{fill:#fff;}.cls-5{fill:#8dc63f;}.cls-6{fill:#be1e2d;}.cls-7{fill:#ffde17;}.cls-8{fill:#3795d2;}</style></defs><g id="Layer_2" data-name="Layer 2"><g id="Layer_1-2" data-name="Layer 1"><path class="cls-1" d="M352.65,72.11v.1a2.92,2.92,0,0,1-.57,1.73c-2.25,3.1-4.42,6.23-6.71,9.54l-1.19,1.73C286,169.65,221.69,280.48,240.39,388.87c7.72,44.75,23,87.93,37.83,129.68,4.74,13.36,9.63,27.18,14.23,40.88l59.31,155.89a2.94,2.94,0,0,1-1.53,3.72,2.88,2.88,0,0,1-1.21.27,2.93,2.93,0,0,1-2.59-1.57c-19.89-37.51-39-75.47-56.81-112.82-21.48-45.08-43.38-82-67-112.88-1.23-1.6-2.56-3.36-4-5.22-11-14.69-27.68-36.87-45.77-37.36-31.36-.88-55,37.88-70.69,63.54-1,1.57-1.88,3.08-2.77,4.53-6.62,10.72-13.6,21.43-20.35,31.79-17.45,26.79-35.5,54.49-48.76,84.23l-.18.42a2.94,2.94,0,1,1-5.37-2.38c.07-.15.14-.3.2-.45,7.42-16.68,14.86-33.69,22.06-50.15,14.54-33.22,29.57-67.56,45.15-100.93,13.25-28.29,22-51.84,27.54-74.11,27.3-110.4-57.24-201-119-267.23a2.94,2.94,0,0,1-.3-3.63,9.71,9.71,0,0,1,1.17-1.44,2.93,2.93,0,0,1,3.94-.19c12,9.88,42.75,37.51,82.14,78.34,10.92,11.36,20.31,21.45,28.59,30.36,32.22,34.62,46.94,50.42,65.82,48.57,30.21-3,48.91-37.4,63.93-65.09,3.34-6.16,6.49-12,9.58-17.09,22.79-37.84,49.39-78.09,83.69-126.69l1.19-1.72c2.21-3.2,4.31-6.23,6.5-9.25a2.94,2.94,0,0,1,5.61,1.22Z"/><path class="cls-1" d="M221.29,190.8a40.74,40.74,0,1,1-40.74-40.74A40.79,40.79,0,0,1,221.29,190.8Z"/><path class="cls-2" d="M565,138.72C503.24,205,418.73,295.73,446.09,406c5.43,22.19,14.15,45.73,27.43,74.1,15.88,33.84,31.14,68.69,45.89,102.39,7.06,16.13,14.35,32.8,21.62,49.13h0a2.81,2.81,0,0,1,.26,1.19,2.94,2.94,0,0,1-5.62,1.2h0c-13.23-29.65-31.18-57.25-48.54-84-6.88-10.59-14-21.53-20.74-32.47-.89-1.45-1.82-3-2.76-4.53-15.66-25.66-39.34-64.43-70.79-63.55-18,.49-34.66,22.67-45.67,37.34-1.41,1.87-2.74,3.64-4,5.25-23.79,31.13-45.11,67-67.07,112.88-17.8,37.31-36.91,75.27-56.81,112.81a2.94,2.94,0,0,1-2.59,1.57,2.88,2.88,0,0,1-1.21-.27,2.94,2.94,0,0,1-1.53-3.72l59.31-155.89c4.55-13.47,9.38-27.07,14-40.21,14.92-42,30.35-85.37,38.1-130.35C344.44,278.94,277,164.6,216.1,77.27l-.06-.09h0l-.06-.1a22.7,22.7,0,0,0-2.12-3,2.92,2.92,0,0,1-.66-1.86v-.1a2.93,2.93,0,0,1,5.55-1.33A27.74,27.74,0,0,1,221,74c38.08,53.88,65.59,95.38,89.2,134.55,3.1,5.14,6.27,11,9.63,17.2,15,27.64,33.6,62,63.78,65,18.91,1.86,33.6-14,65.81-48.57,8.29-8.91,17.68-19,28.59-30.35,39.4-40.84,70.17-68.47,82.15-78.35a2.93,2.93,0,0,1,3.94.19,8.92,8.92,0,0,1,1.16,1.44A2.93,2.93,0,0,1,565,138.72Z"/><path class="cls-2" d="M426,190.8a40.74,40.74,0,1,1-40.74-40.74A40.78,40.78,0,0,1,426,190.8Z"/><path class="cls-3" d="M452.57,638.34a2.86,2.86,0,0,1-1.2.26,2.93,2.93,0,0,1-2.6-1.56c-19.9-37.54-39-75.5-56.81-112.82-21.5-45.16-43.44-82.09-67.07-112.88-2.19-2.87-4.34-5.88-6.61-9.08-8.39-11.79-17.06-24-29-29.65-15.76-7.46-32.23,16-43.13,31.45-1.89,2.69-3.68,5.23-5.23,7.27-23.63,30.8-45.57,67.72-67.07,112.89C156,561.54,136.91,599.5,117,637a2.94,2.94,0,0,1-5.34-2.42L171,478.73c4.54-13.47,9.37-27.06,14-40.2,14.92-42,30.35-85.38,38.11-130.36C241.93,200,177.55,89.11,119.36,4.6a2.93,2.93,0,0,1,4.81-3.36c33.05,46.69,60.43,88.11,83.71,126.6,3.11,5.15,6.28,11,9.64,17.2,15,27.64,33.6,62,63.77,65a.69.69,0,0,1,.2,0,10.1,10.1,0,0,0,1.4.06,10.25,10.25,0,0,0,1.41-.06.69.69,0,0,1,.2,0c30.17-2.95,48.8-37.34,63.77-65,3.36-6.2,6.53-12,9.64-17.2,23.28-38.49,50.66-79.91,83.7-126.6a2.94,2.94,0,0,1,4.82,3.36C388.24,89.11,323.85,200,342.64,308.16c7.76,45,23.19,88.39,38.11,130.37,4.67,13.14,9.5,26.73,14,40.2l59.32,155.89A2.94,2.94,0,0,1,452.57,638.34Z"/><path class="cls-3" d="M323.61,110.07a40.74,40.74,0,1,1-40.74-40.74A40.78,40.78,0,0,1,323.61,110.07Z"/><path class="cls-3" d="M651.45,319a72.82,72.82,0,0,1-31.33-6.8,60,60,0,0,1-23.65-19.51,18.67,18.67,0,0,1-3.54-10.34A15.83,15.83,0,0,1,598.69,270q5.76-5,11.38-5a16.39,16.39,0,0,1,8.72,2.66,44,44,0,0,1,7.83,6.21,38.27,38.27,0,0,0,11.68,7.54,36.58,36.58,0,0,0,13.15,2.21A32.54,32.54,0,0,0,668,279.13a35.67,35.67,0,0,0,12.41-11.82,29.05,29.05,0,0,0,4.73-16V127.22a16.76,16.76,0,0,1,5.62-12.86,18.62,18.62,0,0,1,13-5.17q8.26,0,13.3,5.17a17.73,17.73,0,0,1,5,12.86V251.35a62.6,62.6,0,0,1-9.45,33.4,73.09,73.09,0,0,1-25.42,24.82A68.79,68.79,0,0,1,651.45,319Z"/><path class="cls-3" d="M956.74,212.63A114.42,114.42,0,0,1,949.36,254a105.48,105.48,0,0,1-20.84,33.84,96.41,96.41,0,0,1-31.92,22.9A97.5,97.5,0,0,1,856.26,319a95.87,95.87,0,0,1-72-31.18A105.1,105.1,0,0,1,763.46,254a119.52,119.52,0,0,1,0-82.75,105.26,105.26,0,0,1,20.83-33.85,98.32,98.32,0,0,1,144.23,0,105.63,105.63,0,0,1,20.84,33.85A114.32,114.32,0,0,1,956.74,212.63Zm-38.42,0a79.79,79.79,0,0,0-8-35.91,65.37,65.37,0,0,0-21.87-25.56q-13.89-9.47-32.21-9.46T824,151.16a64.39,64.39,0,0,0-21.72,25.41q-7.83,16-7.83,36.06a81.06,81.06,0,0,0,7.83,35.91A64.19,64.19,0,0,0,824,274.11q13.89,9.45,32.22,9.45t32.21-9.45a65.33,65.33,0,0,0,21.87-25.57A79.79,79.79,0,0,0,918.32,212.63Z"/><path class="cls-3" d="M1009.64,109.19a17.77,17.77,0,0,1,12.56,5.17,17,17,0,0,1,5.47,12.86V298.05a16.75,16.75,0,0,1-5.61,12.85,18.62,18.62,0,0,1-13,5.17q-8.28,0-13.3-5.17a17.69,17.69,0,0,1-5-12.85V127.22a17.21,17.21,0,0,1,5.32-12.86A18.71,18.71,0,0,1,1009.64,109.19Zm-.88,86h131.81v34H1008.76Zm131.81-86q8.28,0,13.3,5.17a17.74,17.74,0,0,1,5,12.86V298.05a17.43,17.43,0,0,1-5.18,12.85q-5.17,5.18-13.74,5.17a17.73,17.73,0,0,1-12.56-5.17,16.94,16.94,0,0,1-5.47-12.85V127.22a16.76,16.76,0,0,1,5.62-12.86A18.62,18.62,0,0,1,1140.57,109.19Z"/><path class="cls-3" d="M1360.16,109.19a15.1,15.1,0,0,1,11.53,4.73,16.62,16.62,0,0,1,4.43,11.82V298.05a17.66,17.66,0,0,1-18,18,24.58,24.58,0,0,1-7.83-1.33,13.44,13.44,0,0,1-6.06-3.69L1228.05,163.57l7.69-4.73V299.52a16.3,16.3,0,0,1-4.58,11.82,15.91,15.91,0,0,1-12,4.73,15,15,0,0,1-11.53-4.73,16.56,16.56,0,0,1-4.43-11.82V127.22a17.66,17.66,0,0,1,18-18,24.77,24.77,0,0,1,8.58,1.63,12.48,12.48,0,0,1,6.5,4.87l112.6,143.64-5,3.55V125.74a16.58,16.58,0,0,1,4.43-11.82C1351.3,110.77,1355.23,109.19,1360.16,109.19Z"/><path class="cls-3" d="M1438.48,109.19h99a18,18,0,0,1,12.85,4.88,16.48,16.48,0,0,1,5.17,12.56,15.24,15.24,0,0,1-5.17,12,18.69,18.69,0,0,1-12.85,4.58h-82.76l2.66-5v57.64l-2.36-2.37h69.16A18,18,0,0,1,1537,198.3a16.49,16.49,0,0,1,5.18,12.56,15.22,15.22,0,0,1-5.18,12,18.65,18.65,0,0,1-12.85,4.58h-68.27l1.47-2.36v59.7l-2.36-2.66h82.46a17.44,17.44,0,0,1,12.85,5.17,16.43,16.43,0,0,1,5.17,12,15.65,15.65,0,0,1-5.17,12.11,18.3,18.3,0,0,1-12.85,4.73h-99a17.66,17.66,0,0,1-18-18V127.22a17.66,17.66,0,0,1,18-18Z"/><path class="cls-3" d="M1594.23,143.18a18.35,18.35,0,0,1-12.86-4.73A16,16,0,0,1,1576.2,126q0-7.68,5.17-12.27a18.7,18.7,0,0,1,12.86-4.58h131.22a18.37,18.37,0,0,1,12.86,4.73,16,16,0,0,1,5.17,12.41c0,5.13-1.73,9.21-5.17,12.27a18.72,18.72,0,0,1-12.86,4.58Zm65.32,172.89a18.7,18.7,0,0,1-13.6-5.17,17.17,17.17,0,0,1-5.32-12.85V126.63h38.42V298.05a16.94,16.94,0,0,1-5.47,12.85Q1668.12,316.08,1659.55,316.07Z"/><path class="cls-3" d="M1793.43,109.19a17.81,17.81,0,0,1,12.56,5.17,17,17,0,0,1,5.46,12.86V298.05a16.75,16.75,0,0,1-5.61,12.85,18.61,18.61,0,0,1-13,5.17q-8.28,0-13.3-5.17a17.66,17.66,0,0,1-5-12.85V127.22a17.21,17.21,0,0,1,5.32-12.86A18.74,18.74,0,0,1,1793.43,109.19Zm-.89,86h131.81v34H1792.54Zm131.81-86q8.28,0,13.3,5.17a17.74,17.74,0,0,1,5,12.86V298.05a17.46,17.46,0,0,1-5.17,12.85q-5.17,5.18-13.75,5.17a17.75,17.75,0,0,1-12.56-5.17,16.94,16.94,0,0,1-5.47-12.85V127.22a16.76,16.76,0,0,1,5.62-12.86A18.64,18.64,0,0,1,1924.35,109.19Z"/><path class="cls-3" d="M2005,109.19h99a18,18,0,0,1,12.85,4.88,16.48,16.48,0,0,1,5.17,12.56,15.24,15.24,0,0,1-5.17,12,18.69,18.69,0,0,1-12.85,4.58h-82.76l2.66-5v57.64l-2.36-2.37h69.16a18,18,0,0,1,12.85,4.88,16.48,16.48,0,0,1,5.17,12.56,15.21,15.21,0,0,1-5.17,12,18.65,18.65,0,0,1-12.85,4.58h-68.28l1.48-2.36v59.7l-2.36-2.66h82.46a17.44,17.44,0,0,1,12.85,5.17,16.43,16.43,0,0,1,5.17,12,15.65,15.65,0,0,1-5.17,12.11,18.3,18.3,0,0,1-12.85,4.73h-99a17.66,17.66,0,0,1-18-18V127.22a17.66,17.66,0,0,1,18-18Z"/><path class="cls-3" d="M2270.14,281.49a18,18,0,0,1,12.86,4.88,16.52,16.52,0,0,1,5.17,12.56A16.17,16.17,0,0,1,2283,311.2a18,18,0,0,1-12.86,4.87h-96a17.66,17.66,0,0,1-18-18V127.22a17.21,17.21,0,0,1,5.32-12.86,18.73,18.73,0,0,1,13.59-5.17,17.77,17.77,0,0,1,12.56,5.17,17,17,0,0,1,5.47,12.86v159.3l-6.5-5Z"/><path class="cls-3" d="M2334.86,315.78q-8.57,0-13.15-4.58t-4.58-13.15v-5q0-8.56,4.58-13.15t13.15-4.58h3.85q8.57,0,13.15,4.58t4.58,13.15v5q0,8.56-4.58,13.15t-13.15,4.58Z"/><rect class="cls-3" x="592.93" y="343.29" width="937.05" height="269.78" rx="52.81"/><path class="cls-4" d="M720,577.22a111.4,111.4,0,0,1-33.28-4.62q-14.81-4.62-28.26-16.24a20.87,20.87,0,0,1-5.28-6.6,16.33,16.33,0,0,1-1.85-7.4,15.13,15.13,0,0,1,4.36-10.7,14.44,14.44,0,0,1,11-4.62,14,14,0,0,1,9,3.17,83.7,83.7,0,0,0,19.94,12.42q9.9,4.22,24.43,4.22a51.18,51.18,0,0,0,18-3,35.22,35.22,0,0,0,13.2-8.18,16.42,16.42,0,0,0,5-11.76,20,20,0,0,0-4.75-13.47q-4.75-5.53-14.53-9.37T712,495.09A110.6,110.6,0,0,1,687,488.61a58.12,58.12,0,0,1-18.09-11.09,43.84,43.84,0,0,1-11-15.84,53.94,53.94,0,0,1-3.7-20.47q0-17.18,8.85-29.32A55.49,55.49,0,0,1,687,393.4a85,85,0,0,1,33.28-6.34,95.29,95.29,0,0,1,31.83,5.16q14.66,5.14,23.9,13.07,7.65,6.07,7.66,14a15.06,15.06,0,0,1-4.49,10.56,14.09,14.09,0,0,1-10.57,4.75,11.6,11.6,0,0,1-7.13-2.37,47.47,47.47,0,0,0-11.36-7A102.23,102.23,0,0,0,735,419.68a54.65,54.65,0,0,0-14.79-2.24q-11.36,0-19.15,2.9t-11.75,7.93a18.21,18.21,0,0,0-4,11.62A18.83,18.83,0,0,0,690,453q4.62,5.15,13.34,8.19a154,154,0,0,0,20.86,5.41,212.38,212.38,0,0,1,27.87,6.87A65.2,65.2,0,0,1,772,483.6a38.5,38.5,0,0,1,11.88,15.58q4,9.38,4,22.84,0,17.18-9.51,29.58a60.74,60.74,0,0,1-25,19A84.16,84.16,0,0,1,720,577.22Z"/><path class="cls-5" d="M878.43,430.64a97.41,97.41,0,0,1,26.28,3.17q11.22,3.18,17.43,8.85a17.83,17.83,0,0,1,6.2,13.6,17.14,17.14,0,0,1-3.17,9.91,10.49,10.49,0,0,1-9.24,4.62,16.64,16.64,0,0,1-11.88-4.23,28.28,28.28,0,0,0-5-3.43,24.16,24.16,0,0,0-8.06-2.51,52.76,52.76,0,0,0-8.05-.93q-13.47,0-22.85,5.82a38.67,38.67,0,0,0-14.39,15.71,49.81,49.81,0,0,0-5,22.84,48.3,48.3,0,0,0,5.15,22.59,40.3,40.3,0,0,0,14.26,15.71,38.18,38.18,0,0,0,21,5.81,69.86,69.86,0,0,0,11.35-.79,28.11,28.11,0,0,0,7.93-2.38,48.17,48.17,0,0,0,6.6-4.49c1.94-1.58,4.84-2.38,8.72-2.38q6.86,0,10.56,4.36a16,16,0,0,1,3.7,10.7q0,6.6-7.4,12t-19.41,8.71a97.92,97.92,0,0,1-26,3.3q-20.86,0-36.19-9.64a64.3,64.3,0,0,1-23.63-26.28Q809,524.67,809,504.06q0-21.65,8.84-38.16A65.63,65.63,0,0,1,842.38,440Q858.09,430.65,878.43,430.64Z"/><path class="cls-6" d="M1027.12,430.64q19,0,28.92,8.19t13.6,21.79a115.44,115.44,0,0,1,3.7,30.24v67.61a15.85,15.85,0,0,1-4.49,11.49,16.28,16.28,0,0,1-22.72,0,15.85,15.85,0,0,1-4.49-11.49V490.86a54.32,54.32,0,0,0-2.11-15.72,21.55,21.55,0,0,0-7.66-11.22q-5.55-4.21-15.84-4.23-10,0-17.17,4.23a27.33,27.33,0,0,0-10.7,11.22,34.11,34.11,0,0,0-3.56,15.72v67.61A15.85,15.85,0,0,1,980.11,570a16.28,16.28,0,0,1-22.72,0,15.85,15.85,0,0,1-4.49-11.49V395.25a15.88,15.88,0,0,1,4.49-11.49,16.28,16.28,0,0,1,22.72,0,15.88,15.88,0,0,1,4.49,11.49v65.5l-4-.79a59.35,59.35,0,0,1,6.61-9.64,56.93,56.93,0,0,1,10.3-9.64,54.85,54.85,0,0,1,13.47-7.26A45.46,45.46,0,0,1,1027.12,430.64Z"/><path class="cls-7" d="M1244.74,504.06q0,21.66-9.64,38.17A69.21,69.21,0,0,1,1209.22,568a76,76,0,0,1-72.63,0,69.14,69.14,0,0,1-25.88-25.75q-9.64-16.5-9.64-38.17t9.64-38.16A70.15,70.15,0,0,1,1136.59,440a75,75,0,0,1,72.63,0,70.22,70.22,0,0,1,25.88,25.88Q1244.74,482.42,1244.74,504.06Zm-31.69,0q0-13.46-5.41-23.37a40.38,40.38,0,0,0-14.53-15.45,39.55,39.55,0,0,0-40.41,0,40.28,40.28,0,0,0-14.52,15.45q-5.43,9.9-5.42,23.37,0,13.21,5.42,23.12a40.28,40.28,0,0,0,14.52,15.45,39.61,39.61,0,0,0,40.41,0,40.38,40.38,0,0,0,14.53-15.45Q1213,517.27,1213.05,504.06Z"/><path class="cls-8" d="M1409.55,504.06q0,21.66-9.64,38.17A69.24,69.24,0,0,1,1374,568a76,76,0,0,1-72.63,0,69.29,69.29,0,0,1-25.88-25.75q-9.65-16.5-9.64-38.17t9.64-38.16A70.3,70.3,0,0,1,1301.39,440a75,75,0,0,1,72.63,0,70.25,70.25,0,0,1,25.89,25.88Q1409.54,482.42,1409.55,504.06Zm-31.7,0q0-13.46-5.41-23.37a40.31,40.31,0,0,0-14.53-15.45,39.55,39.55,0,0,0-40.41,0A40.28,40.28,0,0,0,1303,480.69q-5.42,9.9-5.42,23.37,0,13.21,5.42,23.12a40.28,40.28,0,0,0,14.52,15.45,39.61,39.61,0,0,0,40.41,0,40.31,40.31,0,0,0,14.53-15.45Q1377.86,517.27,1377.85,504.06Z"/><path class="cls-5" d="M1471.61,558.47a15.79,15.79,0,0,1-16.11,16.11,14.85,14.85,0,0,1-11.09-4.62,15.81,15.81,0,0,1-4.49-11.49V395.25A15.79,15.79,0,0,1,1456,379.14a14.73,14.73,0,0,1,11.22,4.62,16.11,16.11,0,0,1,4.36,11.49Z"/></g></g></svg>