<svg xmlns="http://www.w3.org/2000/svg" viewBox="0 0 2350.51 724.84"><defs><style>.cls-1{fill:#ed1c24;}.cls-2{fill:#f7ec13;}.cls-3{fill:#171144;}.cls-4{fill:#8dc63f;}.cls-5{fill:#be1e2d;}.cls-6{fill:#ffde17;}.cls-7{fill:#662d91;}</style></defs><g id="Layer_2" data-name="Layer 2"><g id="Layer_1-2" data-name="Layer 1"><path class="cls-1" d="M355.36,72.67v.1a3,3,0,0,1-.57,1.74c-2.27,3.12-4.45,6.28-6.76,9.61l-1.2,1.75C288.24,171,223.4,282.64,242.24,391.86c7.78,45.09,23.2,88.61,38.12,130.68,4.77,13.47,9.71,27.39,14.34,41.2l59.77,157.09a3,3,0,0,1-1.55,3.75,2.87,2.87,0,0,1-1.21.26,3,3,0,0,1-2.62-1.57c-20-37.81-39.29-76.06-57.25-113.69-21.63-45.44-43.71-82.65-67.48-113.76-1.24-1.6-2.57-3.38-4-5.25-11.11-14.8-27.9-37.16-46.13-37.65-31.6-.89-55.47,38.17-71.23,64-1,1.58-1.89,3.1-2.8,4.56-6.67,10.8-13.7,21.6-20.5,32-17.59,27-35.77,54.9-49.13,84.87l-.19.43a3,3,0,1,1-5.41-2.4l.21-.45c7.47-16.81,15-34,22.23-50.54C62.07,552,77.22,517.38,92.92,483.76c13.35-28.51,22.17-52.25,27.76-74.68C148.19,297.83,63,206.48.79,139.79a3,3,0,0,1-.3-3.66,10,10,0,0,1,1.18-1.45,3,3,0,0,1,4-.19c12.07,10,43.08,37.8,82.78,78.94,11,11.45,20.46,21.62,28.81,30.59,32.46,34.89,47.29,50.81,66.32,49,30.45-3,49.29-37.69,64.42-65.59,3.37-6.21,6.55-12.07,9.66-17.22,23-38.13,49.77-78.7,84.34-127.67l1.19-1.73c2.23-3.22,4.34-6.28,6.56-9.32a3,3,0,0,1,5.64,1.23Z"/><path class="cls-1" d="M223,192.27a41.05,41.05,0,1,1-41.05-41.05A41.09,41.09,0,0,1,223,192.27Z"/><path class="cls-2" d="M569.3,139.79C507.11,206.56,422,298,449.52,409.08c5.48,22.36,14.26,46.08,27.65,74.68,16,34.1,31.37,69.22,46.24,103.18,7.11,16.24,14.46,33,21.79,49.5h0a3,3,0,0,1,.26,1.2,3,3,0,0,1-5.66,1.21h0v0c-13.34-29.87-31.43-57.69-48.92-84.59-6.94-10.67-14.11-21.7-20.9-32.72-.9-1.46-1.83-3-2.79-4.56-15.77-25.86-39.64-64.93-71.33-64-18.14.49-34.92,22.84-46,37.63-1.42,1.88-2.75,3.66-4,5.28-24,31.37-45.45,67.52-67.59,113.75-17.93,37.61-37.19,75.86-57.24,113.69a3,3,0,0,1-2.62,1.57,2.9,2.9,0,0,1-1.21-.26,3,3,0,0,1-1.55-3.75L275.4,563.74c4.57-13.58,9.44-27.28,14.15-40.52,15-42.3,30.58-86,38.4-131.36,19.14-110.77-48.83-226-110.18-314a.5.5,0,0,1-.07-.08h0a.33.33,0,0,1-.06-.1,23.09,23.09,0,0,0-2.14-3,2.92,2.92,0,0,1-.67-1.87v-.1a3,3,0,0,1,5.59-1.35,28.25,28.25,0,0,1,2.26,3.25c38.37,54.29,66.09,96.11,89.88,135.59,3.13,5.18,6.33,11.08,9.71,17.32C337.36,255.34,356.13,290,386.54,293c19,1.87,33.86-14.06,66.32-49,8.35-9,17.81-19.14,28.81-30.58,39.7-41.15,70.71-69,82.78-78.95a3,3,0,0,1,4,.19,8.66,8.66,0,0,1,1.17,1.45A3,3,0,0,1,569.3,139.79Z"/><path class="cls-2" d="M429.25,192.27a41.06,41.06,0,1,1-41.05-41.05A41.1,41.1,0,0,1,429.25,192.27Z"/><path class="cls-3" d="M456.06,643.25a3,3,0,0,1-3.84-1.31c-20.05-37.82-39.31-76.07-57.24-113.69-21.67-45.5-43.78-82.71-67.59-113.75-2.21-2.88-4.37-5.92-6.66-9.14-8.45-11.88-17.19-24.17-29.25-29.88C275.6,368,259,391.56,248,407.17c-1.91,2.71-3.71,5.27-5.28,7.32-23.81,31.05-45.91,68.25-67.58,113.76-17.94,37.62-37.2,75.87-57.25,113.69a3,3,0,0,1-5.38-2.44l59.77-157.09c4.58-13.57,9.45-27.27,14.15-40.51,15-42.3,30.58-86,38.41-131.36,18.92-109-46-220.75-104.59-305.9a3,3,0,0,1,4.85-3.39C158.43,48.3,186,90,209.48,128.83c3.13,5.18,6.32,11.08,9.71,17.33,15.09,27.85,33.86,62.52,64.27,65.49l.19,0a16.83,16.83,0,0,0,2.84,0l.2,0c30.4-3,49.18-37.64,64.26-65.49,3.38-6.25,6.58-12.15,9.71-17.33C384.12,90,411.71,48.3,445,1.25a3,3,0,0,1,4.85,3.39C391.23,89.79,326.34,201.52,345.28,310.53c7.82,45.34,23.36,89.07,38.4,131.37,4.71,13.24,9.58,26.94,14.15,40.51L457.6,639.5A3,3,0,0,1,456.06,643.25Z"/><path class="cls-3" d="M326.1,110.91a41.05,41.05,0,1,1-41.05-41A41.1,41.1,0,0,1,326.1,110.91Z"/><path class="cls-3" d="M645.52,265.58a72.85,72.85,0,0,1-31.33-6.79,60.25,60.25,0,0,1-23.64-19.51A18.72,18.72,0,0,1,587,228.93a15.84,15.84,0,0,1,5.77-12.41q5.76-5,11.38-5a16.27,16.27,0,0,1,8.71,2.66,43.58,43.58,0,0,1,7.84,6.2,38.36,38.36,0,0,0,11.67,7.54,36.4,36.4,0,0,0,13.15,2.22,32.52,32.52,0,0,0,16.55-4.44,35.7,35.7,0,0,0,12.42-11.82,29.05,29.05,0,0,0,4.73-16V73.77a16.77,16.77,0,0,1,5.61-12.85,18.61,18.61,0,0,1,13-5.18q8.28,0,13.3,5.18a17.72,17.72,0,0,1,5,12.85V197.9a62.58,62.58,0,0,1-9.46,33.4,73.11,73.11,0,0,1-25.42,24.83A68.85,68.85,0,0,1,645.52,265.58Z"/><path class="cls-3" d="M950.82,159.19a114.37,114.37,0,0,1-7.39,41.37A105.45,105.45,0,0,1,922.6,234.4a96.44,96.44,0,0,1-31.92,22.91,97.7,97.7,0,0,1-40.35,8.27,95.77,95.77,0,0,1-72-31.18,105.13,105.13,0,0,1-20.84-33.84,114.15,114.15,0,0,1-7.39-41.37,114.21,114.21,0,0,1,7.39-41.38A105.13,105.13,0,0,1,778.37,84a95.77,95.77,0,0,1,72-31.18,97.7,97.7,0,0,1,40.35,8.27A96.44,96.44,0,0,1,922.6,84a105.45,105.45,0,0,1,20.83,33.84A114.42,114.42,0,0,1,950.82,159.19Zm-38.42,0a79.79,79.79,0,0,0-8-35.91,65.33,65.33,0,0,0-21.87-25.57q-13.9-9.45-32.22-9.46t-32.21,9.46a64.26,64.26,0,0,0-21.72,25.42q-7.85,16-7.84,36.06a80.85,80.85,0,0,0,7.84,35.9,63.89,63.89,0,0,0,21.72,25.57q13.89,9.47,32.21,9.46t32.22-9.46a65.19,65.19,0,0,0,21.87-25.57A79.71,79.71,0,0,0,912.4,159.19Z"/><path class="cls-3" d="M1003.72,55.74a17.76,17.76,0,0,1,12.56,5.18,17,17,0,0,1,5.47,12.85V244.6a16.8,16.8,0,0,1-5.62,12.86,18.64,18.64,0,0,1-13,5.17q-8.28,0-13.3-5.17a17.74,17.74,0,0,1-5-12.86V73.77a17.22,17.22,0,0,1,5.32-12.85A18.7,18.7,0,0,1,1003.72,55.74Zm-.89,86h131.82v34H1002.83Zm131.82-86q8.26,0,13.3,5.18a17.75,17.75,0,0,1,5,12.85V244.6a17.5,17.5,0,0,1-5.17,12.86q-5.17,5.16-13.74,5.17a17.77,17.77,0,0,1-12.56-5.17A17,17,0,0,1,1116,244.6V73.77a16.77,16.77,0,0,1,5.61-12.85A18.61,18.61,0,0,1,1134.65,55.74Z"/><path class="cls-3" d="M1354.24,55.74a15.06,15.06,0,0,1,11.52,4.73,16.62,16.62,0,0,1,4.44,11.82V244.6a17.68,17.68,0,0,1-18,18,24.86,24.86,0,0,1-7.83-1.33,13.48,13.48,0,0,1-6.06-3.7L1222.13,110.12l7.68-4.72V246.08a16.33,16.33,0,0,1-4.58,11.82,15.94,15.94,0,0,1-12,4.73,15.1,15.1,0,0,1-11.53-4.73,16.64,16.64,0,0,1-4.43-11.82V73.77a17.68,17.68,0,0,1,18-18,25,25,0,0,1,8.57,1.63,12.4,12.4,0,0,1,6.5,4.88L1343,205.88l-5,3.55V72.29a16.62,16.62,0,0,1,4.44-11.82Q1346.84,55.75,1354.24,55.74Z"/><path class="cls-3" d="M1432.55,55.74h99a18,18,0,0,1,12.86,4.88,16.52,16.52,0,0,1,5.17,12.56,15.24,15.24,0,0,1-5.17,12,18.67,18.67,0,0,1-12.86,4.58h-82.75l2.66-5v57.63L1449.1,140h69.16a18,18,0,0,1,12.86,4.88,16.52,16.52,0,0,1,5.17,12.56,15.24,15.24,0,0,1-5.17,12,18.67,18.67,0,0,1-12.86,4.58H1450l1.48-2.36v59.7l-2.37-2.66h82.46a17.5,17.5,0,0,1,12.86,5.17,16.47,16.47,0,0,1,5.17,12,15.7,15.7,0,0,1-5.17,12.12,18.37,18.37,0,0,1-12.86,4.73h-99a17.68,17.68,0,0,1-18-18V73.77a17.7,17.7,0,0,1,18-18Z"/><path class="cls-3" d="M1588.3,89.73A18.28,18.28,0,0,1,1575.45,85a16,16,0,0,1-5.17-12.41q0-7.68,5.17-12.27a18.68,18.68,0,0,1,12.85-4.58h131.23a18.34,18.34,0,0,1,12.85,4.73,16,16,0,0,1,5.18,12.41q0,7.7-5.18,12.27a18.65,18.65,0,0,1-12.85,4.58Zm65.32,172.9a18.7,18.7,0,0,1-13.59-5.17,17.21,17.21,0,0,1-5.32-12.86V73.18h38.42V244.6a17,17,0,0,1-5.47,12.86Q1662.19,262.62,1653.62,262.63Z"/><path class="cls-3" d="M1787.5,55.74a17.76,17.76,0,0,1,12.56,5.18,17,17,0,0,1,5.47,12.85V244.6a16.8,16.8,0,0,1-5.62,12.86,18.64,18.64,0,0,1-13,5.17q-8.28,0-13.3-5.17a17.73,17.73,0,0,1-5-12.86V73.77a17.19,17.19,0,0,1,5.32-12.85A18.67,18.67,0,0,1,1787.5,55.74Zm-.89,86h131.82v34H1786.61Zm131.82-86q8.27,0,13.3,5.18a17.71,17.71,0,0,1,5,12.85V244.6a17.46,17.46,0,0,1-5.17,12.86q-5.17,5.16-13.74,5.17a17.77,17.77,0,0,1-12.56-5.17,17,17,0,0,1-5.47-12.86V73.77a16.74,16.74,0,0,1,5.62-12.85A18.59,18.59,0,0,1,1918.43,55.74Z"/><path class="cls-3" d="M1999.11,55.74h99A18,18,0,0,1,2111,60.62a16.52,16.52,0,0,1,5.17,12.56,15.24,15.24,0,0,1-5.17,12,18.67,18.67,0,0,1-12.86,4.58h-82.75l2.66-5v57.63l-2.37-2.37h69.16a18,18,0,0,1,12.86,4.88,16.52,16.52,0,0,1,5.17,12.56,15.24,15.24,0,0,1-5.17,12,18.67,18.67,0,0,1-12.86,4.58h-68.27l1.48-2.36v59.7l-2.37-2.66h82.46a17.5,17.5,0,0,1,12.86,5.17,16.47,16.47,0,0,1,5.17,12A15.7,15.7,0,0,1,2111,257.9a18.37,18.37,0,0,1-12.86,4.73h-99a17.68,17.68,0,0,1-18-18V73.77a17.7,17.7,0,0,1,18-18Z"/><path class="cls-3" d="M2264.22,228.05a18,18,0,0,1,12.85,4.87,16.51,16.51,0,0,1,5.17,12.57,16.13,16.13,0,0,1-5.17,12.26,18,18,0,0,1-12.85,4.88h-96.06a17.68,17.68,0,0,1-18-18V73.77a17.22,17.22,0,0,1,5.32-12.85,18.7,18.7,0,0,1,13.6-5.18,17.76,17.76,0,0,1,12.56,5.18,17,17,0,0,1,5.47,12.85v159.3l-6.5-5Z"/><path class="cls-3" d="M2328.94,262.33q-8.58,0-13.15-4.58t-4.58-13.15v-5q0-8.56,4.58-13.15t13.15-4.58h3.84q8.56,0,13.15,4.58t4.58,13.15v5q0,8.58-4.58,13.15t-13.15,4.58Z"/><path class="cls-3" d="M673,531.68q-20.07,0-36.11-5T606.21,509a22.54,22.54,0,0,1-5.74-7.17,17.87,17.87,0,0,1-2-8,16.37,16.37,0,0,1,4.73-11.61,15.66,15.66,0,0,1,11.89-5,15.22,15.22,0,0,1,9.75,3.44,90.59,90.59,0,0,0,21.64,13.47q10.74,4.59,26.51,4.59a55.56,55.56,0,0,0,19.49-3.3,38.29,38.29,0,0,0,14.34-8.88,17.83,17.83,0,0,0,5.44-12.76,21.72,21.72,0,0,0-5.16-14.62q-5.16-6-15.76-10.17t-27-6.45a120.55,120.55,0,0,1-27.23-7,63.4,63.4,0,0,1-19.63-12,47.7,47.7,0,0,1-11.9-17.2,58.72,58.72,0,0,1-4-22.22q0-18.62,9.6-31.81a60.19,60.19,0,0,1,25.94-20.07,92.31,92.31,0,0,1,36.12-6.88,103.69,103.69,0,0,1,34.54,5.59q15.9,5.6,25.94,14.19,8.31,6.6,8.31,15.19a16.32,16.32,0,0,1-4.87,11.47,15.28,15.28,0,0,1-11.47,5.16,12.61,12.61,0,0,1-7.74-2.58,52.09,52.09,0,0,0-12.32-7.6,112.36,112.36,0,0,0-16.34-6,59.19,59.19,0,0,0-16.05-2.43q-12.33,0-20.78,3.15T639.74,370a19.82,19.82,0,0,0-4.3,12.61q0,8.6,5,14.19t14.47,8.89a168.72,168.72,0,0,0,22.65,5.87A232.28,232.28,0,0,1,707.82,419a70.84,70.84,0,0,1,21.64,11A41.85,41.85,0,0,1,742.36,447q4.29,10.18,4.3,24.8,0,18.63-10.32,32.1a66.11,66.11,0,0,1-27.09,20.64A91.4,91.4,0,0,1,673,531.68Z"/><path class="cls-4" d="M845,372.6q16.34,0,28.52,3.44t18.92,9.6a19.32,19.32,0,0,1,6.73,14.76,18.58,18.58,0,0,1-3.44,10.75q-3.44,5-10,5a19.31,19.31,0,0,1-7.59-1.29,19.83,19.83,0,0,1-5.31-3.3,30.29,30.29,0,0,0-5.44-3.72,26.15,26.15,0,0,0-8.74-2.73,57.35,57.35,0,0,0-8.75-1q-14.61,0-24.79,6.31a41.91,41.91,0,0,0-15.62,17.05Q804,438.25,804,452.28a52.27,52.27,0,0,0,5.59,24.51,43.84,43.84,0,0,0,15.48,17.06,41.49,41.49,0,0,0,22.79,6.3,75.41,75.41,0,0,0,12.32-.86,30.31,30.31,0,0,0,8.6-2.58,52.2,52.2,0,0,0,7.17-4.87q3.15-2.58,9.46-2.58,7.44,0,11.46,4.73a17.35,17.35,0,0,1,4,11.61q0,7.17-8,13t-21.07,9.46a106.25,106.25,0,0,1-28.23,3.58q-22.65,0-39.27-10.46a69.86,69.86,0,0,1-25.66-28.52q-9-18.06-9-40.42,0-23.49,9.6-41.41a71.19,71.19,0,0,1,26.65-28.1Q822.9,372.6,845,372.6Z"/><path class="cls-5" d="M1006.34,372.6q20.64,0,31.39,8.89t14.76,23.64a125.3,125.3,0,0,1,4,32.82v73.38a17.17,17.17,0,0,1-4.87,12.47,17.64,17.64,0,0,1-24.65,0,17.17,17.17,0,0,1-4.87-12.47V438a58.86,58.86,0,0,0-2.3-17.05,23.37,23.37,0,0,0-8.31-12.18q-6-4.59-17.2-4.59-10.89,0-18.63,4.59a29.61,29.61,0,0,0-11.61,12.18A37,37,0,0,0,960.19,438v73.38a17.17,17.17,0,0,1-4.87,12.47,17.64,17.64,0,0,1-24.65,0,17.17,17.17,0,0,1-4.87-12.47V334.19a17.19,17.19,0,0,1,4.87-12.47,17.67,17.67,0,0,1,24.65,0,17.19,17.19,0,0,1,4.87,12.47v71.09l-4.3-.86A64.19,64.19,0,0,1,963.06,394a61.91,61.91,0,0,1,11.18-10.46,59.72,59.72,0,0,1,14.62-7.88A49.29,49.29,0,0,1,1006.34,372.6Z"/><path class="cls-6" d="M1242.53,452.28q0,23.52-10.46,41.42A75.12,75.12,0,0,1,1204,521.65a78.3,78.3,0,0,1-39.42,10q-21.78,0-39.41-10a75,75,0,0,1-28.09-27.95q-10.47-17.91-10.46-41.42t10.46-41.41a76.18,76.18,0,0,1,28.09-28.1,81.46,81.46,0,0,1,78.83,0,76.26,76.26,0,0,1,28.09,28.1Q1242.53,428.78,1242.53,452.28Zm-34.4,0q0-14.61-5.87-25.36a43.74,43.74,0,0,0-15.77-16.77,42.94,42.94,0,0,0-43.85,0,43.67,43.67,0,0,0-15.77,16.77q-5.88,10.74-5.87,25.36,0,14.34,5.87,25.08a43.67,43.67,0,0,0,15.77,16.77,42.94,42.94,0,0,0,43.85,0,43.74,43.74,0,0,0,15.77-16.77Q1208.13,466.62,1208.13,452.28Z"/><path class="cls-7" d="M1421.39,452.28q0,23.52-10.46,41.42a75.12,75.12,0,0,1-28.09,27.95,78.3,78.3,0,0,1-39.42,10q-21.78,0-39.41-10a75,75,0,0,1-28.09-27.95q-10.47-17.91-10.46-41.42t10.46-41.41a76.18,76.18,0,0,1,28.09-28.1,81.46,81.46,0,0,1,78.83,0,76.26,76.26,0,0,1,28.09,28.1Q1421.39,428.78,1421.39,452.28Zm-34.4,0q0-14.61-5.87-25.36a43.74,43.74,0,0,0-15.77-16.77,42.94,42.94,0,0,0-43.85,0,43.59,43.59,0,0,0-15.77,16.77q-5.88,10.74-5.88,25.36,0,14.34,5.88,25.08a43.59,43.59,0,0,0,15.77,16.77,42.94,42.94,0,0,0,43.85,0,43.74,43.74,0,0,0,15.77-16.77Q1387,466.62,1387,452.28Z"/><path class="cls-4" d="M1488.74,511.33a17.13,17.13,0,0,1-17.48,17.49,16.14,16.14,0,0,1-12-5,17.17,17.17,0,0,1-4.87-12.47V334.19a17.12,17.12,0,0,1,17.48-17.48,16,16,0,0,1,12.18,5,17.45,17.45,0,0,1,4.73,12.47Z"/></g></g></svg>